<svg width="40" height="40" viewBox="0 0 40 40" fill="none" xmlns="http://www.w3.org/2000/svg">
<g clip-path="url(#clip0_36_132)">
<path d="M0 20C0 8.95312 8.95312 0 20 0C31.0469 0 40 8.95312 40 20C40 31.0469 31.0469 40 20 40C8.95312 40 0 31.0469 0 20ZM13.6719 16.2578L17.3516 19.9297L13.6719 23.6719C12.9453 24.4062 12.9453 25.5938 13.6719 26.2578C14.4062 27.0547 15.5938 27.0547 16.2578 26.2578L19.9297 22.6484L23.6719 26.2578C24.4062 27.0547 25.5938 27.0547 26.2578 26.2578C27.0547 25.5938 27.0547 24.4062 26.2578 23.6719L22.6484 19.9297L26.2578 16.2578C27.0547 15.5938 27.0547 14.4062 26.2578 13.6719C25.5938 12.9453 24.4062 12.9453 23.6719 13.6719L19.9297 17.3516L16.2578 13.6719C15.5938 12.9453 14.4062 12.9453 13.6719 13.6719C12.9453 14.4062 12.9453 15.5938 13.6719 16.2578Z" fill="#CF0009"/>
<path d="M13.6719 16.2578L17.3516 19.9297L13.6719 23.6719C12.9453 24.4062 12.9453 25.5938 13.6719 26.2578C14.4062 27.0547 15.5938 27.0547 16.2578 26.2578L19.9297 22.6484L23.6719 26.2578C24.4062 27.0547 25.5938 27.0547 26.2578 26.2578C27.0547 25.5938 27.0547 24.4062 26.2578 23.6719L22.6484 19.9297L26.2578 16.2578C27.0547 15.5938 27.0547 14.4062 26.2578 13.6719C25.5938 12.9453 24.4062 12.9453 23.6719 13.6719L19.9297 17.3516L16.2578 13.6719C15.5938 12.9453 14.4062 12.9453 13.6719 13.6719C12.9453 14.4062 12.9453 15.5938 13.6719 16.2578Z" fill="#CF0009"/>
<path d="M6 20C6 12.2672 12.2672 6 20 6C27.7328 6 34 12.2672 34 20C34 27.7328 27.7328 34 20 34C12.2672 34 6 27.7328 6 20ZM15.5703 17.3805L18.1461 19.9508L15.5703 22.5703C15.0617 23.0843 15.0617 23.9157 15.5703 24.3805C16.0843 24.9383 16.9157 24.9383 17.3805 24.3805L19.9508 21.8539L22.5703 24.3805C23.0843 24.9383 23.9157 24.9383 24.3805 24.3805C24.9383 23.9157 24.9383 23.0843 24.3805 22.5703L21.8539 19.9508L24.3805 17.3805C24.9383 16.9157 24.9383 16.0843 24.3805 15.5703C23.9157 15.0617 23.0843 15.0617 22.5703 15.5703L19.9508 18.1461L17.3805 15.5703C16.9157 15.0617 16.0843 15.0617 15.5703 15.5703C15.0617 16.0843 15.0617 16.9157 15.5703 17.3805Z" fill="#FFE9E6"/>
</g>
<defs>
<clipPath id="clip0_36_132">
<rect width="40" height="40" fill="white"/>
</clipPath>
</defs>
</svg>
