<svg width="40" height="40" viewBox="0 0 40 40" fill="none" xmlns="http://www.w3.org/2000/svg">
<g clip-path="url(#clip0_36_102)">
<path d="M20 0C8.95312 0 0 8.95312 0 20C0 31.0469 8.95312 40 20 40C31.0469 40 40 31.0469 40 20C40 8.95312 31.0469 0 20 0ZM20 10C21.3805 10 22.5 11.1195 22.5 12.5C22.5 13.8805 21.3805 15 20 15C18.6195 15 17.5 13.8828 17.5 12.5C17.5 11.1172 18.6172 10 20 10ZM23.125 30H16.875C15.8438 30 15 29.1641 15 28.125C15 27.0859 15.8398 26.25 16.875 26.25H18.125V21.25H17.5C16.4648 21.25 15.625 20.4102 15.625 19.375C15.625 18.3398 16.4688 17.5 17.5 17.5H20C21.0352 17.5 21.875 18.3398 21.875 19.375V26.25H23.125C24.1602 26.25 25 27.0898 25 28.125C25 29.1602 24.1641 30 23.125 30Z" fill="#4A75E8"/>
<path d="M20 10C21.3805 10 22.5 11.1195 22.5 12.5C22.5 13.8805 21.3805 15 20 15C18.6195 15 17.5 13.8828 17.5 12.5C17.5 11.1172 18.6172 10 20 10Z" fill="#4A75E8"/>
<path d="M23.125 30H16.875C15.8438 30 15 29.1641 15 28.125C15 27.0859 15.8398 26.25 16.875 26.25H18.125V21.25H17.5C16.4648 21.25 15.625 20.4102 15.625 19.375C15.625 18.3398 16.4688 17.5 17.5 17.5H20C21.0352 17.5 21.875 18.3398 21.875 19.375V26.25H23.125C24.1602 26.25 25 27.0898 25 28.125C25 29.1602 24.1641 30 23.125 30Z" fill="#4A75E8"/>
<path d="M20 6C12.2672 6 6 12.2672 6 20C6 27.7328 12.2672 34 20 34C27.7328 34 34 27.7328 34 20C34 12.2672 27.7328 6 20 6ZM20 13C20.9663 13 21.75 13.7836 21.75 14.75C21.75 15.7163 20.9663 16.5 20 16.5C19.0336 16.5 18.25 15.718 18.25 14.75C18.25 13.782 19.032 13 20 13ZM22.1875 27H17.8125C17.0907 27 16.5 26.4149 16.5 25.6875C16.5 24.9601 17.0879 24.375 17.8125 24.375H18.6875V20.875H18.25C17.5254 20.875 16.9375 20.2871 16.9375 19.5625C16.9375 18.8379 17.5282 18.25 18.25 18.25H20C20.7246 18.25 21.3125 18.8379 21.3125 19.5625V24.375H22.1875C22.9121 24.375 23.5 24.9629 23.5 25.6875C23.5 26.4121 22.9149 27 22.1875 27Z" fill="#E4ECFE"/>
<path d="M20 13C20.9663 13 21.75 13.7837 21.75 14.75C21.75 15.7163 20.9663 16.5 20 16.5C19.0337 16.5 18.25 15.718 18.25 14.75C18.25 13.782 19.032 13 20 13Z" fill="#4A75E8"/>
<path d="M22.1875 27H17.8125C17.0907 27 16.5 26.4149 16.5 25.6875C16.5 24.9601 17.0879 24.375 17.8125 24.375H18.6875V20.875H18.25C17.5254 20.875 16.9375 20.2871 16.9375 19.5625C16.9375 18.8379 17.5282 18.25 18.25 18.25H20C20.7246 18.25 21.3125 18.8379 21.3125 19.5625V24.375H22.1875C22.9121 24.375 23.5 24.9629 23.5 25.6875C23.5 26.4121 22.9149 27 22.1875 27Z" fill="#4A75E8"/>
</g>
<defs>
<clipPath id="clip0_36_102">
<rect width="40" height="40" fill="white"/>
</clipPath>
</defs>
</svg>
