<svg width="20" height="20" viewBox="0 0 20 20" fill="none" xmlns="http://www.w3.org/2000/svg">
<path d="M0 10C0 4.49219 4.45312 0 10 0C15.5078 0 20 4.49219 20 10C20 15.5469 15.5078 20 10 20C4.45312 20 0 15.5469 0 10ZM10 14.375C10.5078 14.375 10.9375 13.9844 10.9375 13.4375V10.9375H13.4375C13.9453 10.9375 14.375 10.5469 14.375 10C14.375 9.49219 13.9453 9.0625 13.4375 9.0625H10.9375V6.5625C10.9375 6.05469 10.5078 5.625 10 5.625C9.45312 5.625 9.0625 6.05469 9.0625 6.5625V9.0625H6.5625C6.01562 9.0625 5.625 9.49219 5.625 10C5.625 10.5469 6.01562 10.9375 6.5625 10.9375H9.0625V13.4375C9.0625 13.9844 9.45312 14.375 10 14.375Z" fill="#E0E7F5"/>
<path d="M10 14.9275C10.5721 14.9275 11.0561 14.4874 11.0561 13.8714V11.055H13.8725C14.4445 11.055 14.9286 10.615 14.9286 9.9989C14.9286 9.42683 14.4445 8.94278 13.8725 8.94278H11.0561V6.12644C11.0561 5.55437 10.5721 5.07031 10 5.07031C9.38393 5.07031 8.94387 5.55437 8.94387 6.12644V8.94278H6.12754C5.51146 8.94278 5.07141 9.42683 5.07141 9.9989C5.07141 10.615 5.51146 11.055 6.12754 11.055H8.94387V13.8714C8.94387 14.4874 9.38393 14.9275 10 14.9275Z" fill="#4A75E8"/>
</svg>
