<svg width="20" height="20" viewBox="0 0 20 20" fill="none" xmlns="http://www.w3.org/2000/svg">
<path d="M0 10C0 4.49219 4.45312 0 10 0C15.5078 0 20 4.49219 20 10C20 15.5469 15.5078 20 10 20C4.45312 20 0 15.5469 0 10ZM10 14.375C10.5078 14.375 10.9375 13.9844 10.9375 13.4375V10.9375H13.4375C13.9453 10.9375 14.375 10.5469 14.375 10C14.375 9.49219 13.9453 9.0625 13.4375 9.0625H10.9375V6.5625C10.9375 6.05469 10.5078 5.625 10 5.625C9.45312 5.625 9.0625 6.05469 9.0625 6.5625V9.0625H6.5625C6.01562 9.0625 5.625 9.49219 5.625 10C5.625 10.5469 6.01562 10.9375 6.5625 10.9375H9.0625V13.4375C9.0625 13.9844 9.45312 14.375 10 14.375Z" fill="#4A75E8"/>
<path d="M14.9285 9.99915C14.9285 9.42708 14.4884 8.94302 13.8723 8.94302H11.056V6.12668C11.056 5.55462 10.616 5.07056 9.99988 5.07056C9.42781 5.07056 8.94375 5.55462 8.94375 6.12668V8.94302H6.12742C5.55535 8.94302 5.07129 9.42708 5.07129 9.99915C5.07129 10.6152 5.55535 11.0553 6.12742 11.0553H8.94375V13.8716C8.94375 14.4877 9.42781 14.9277 9.99988 14.9277C10.616 14.9277 11.056 14.4877 11.056 13.8716V11.0553H13.8723C14.4884 11.0553 14.9285 10.6152 14.9285 9.99915Z" fill="#E0E7F5"/>
</svg>
