<svg id="svg" version="1.1" xmlns="http://www.w3.org/2000/svg" xmlns:xlink="http://www.w3.org/1999/xlink" width="400" height="127.23492723492724" viewBox="0, 0, 400,127.23492723492724"><g id="svgg"><path id="path0" d="M30.208 31.788 C 30.552 31.824,31.115 31.824,31.458 31.788 C 31.802 31.752,31.521 31.723,30.833 31.723 C 30.146 31.723,29.865 31.752,30.208 31.788 M33.125 31.787 C 33.423 31.824,33.910 31.824,34.208 31.787 C 34.506 31.750,34.262 31.720,33.667 31.720 C 33.071 31.720,32.827 31.750,33.125 31.787 M368.375 31.788 C 368.719 31.824,369.281 31.824,369.625 31.788 C 369.969 31.752,369.688 31.723,369.000 31.723 C 368.313 31.723,368.031 31.752,368.375 31.788 M371.375 31.788 C 371.719 31.824,372.281 31.824,372.625 31.788 C 372.969 31.752,372.688 31.723,372.000 31.723 C 371.313 31.723,371.031 31.752,371.375 31.788 M23.917 32.500 C 23.707 32.590,23.676 32.643,23.833 32.643 C 23.971 32.643,24.233 32.579,24.417 32.500 C 24.627 32.410,24.658 32.357,24.500 32.357 C 24.363 32.357,24.100 32.421,23.917 32.500 M62.748 61.917 C 62.748 78.050,62.768 84.625,62.792 76.528 C 62.816 68.432,62.816 55.232,62.792 47.195 C 62.768 39.159,62.748 45.783,62.748 61.917 M79.248 61.917 C 79.248 78.050,79.268 84.625,79.292 76.528 C 79.316 68.432,79.316 55.232,79.292 47.195 C 79.268 39.159,79.248 45.783,79.248 61.917 M93.915 61.917 C 93.915 78.050,93.934 84.625,93.958 76.528 C 93.982 68.432,93.982 55.232,93.958 47.195 C 93.934 39.159,93.915 45.783,93.915 61.917 M135.908 38.000 C 135.908 40.979,135.930 42.198,135.958 40.708 C 135.986 39.219,135.986 36.781,135.958 35.292 C 135.930 33.802,135.908 35.021,135.908 38.000 M147.081 61.917 C 147.081 78.050,147.101 84.625,147.125 76.528 C 147.149 68.432,147.149 55.232,147.125 47.195 C 147.101 39.159,147.081 45.783,147.081 61.917 M218.081 61.917 C 218.081 78.050,218.101 84.625,218.125 76.528 C 218.149 68.432,218.149 55.232,218.125 47.195 C 218.101 39.159,218.081 45.783,218.081 61.917 M274.908 38.000 C 274.908 40.979,274.930 42.198,274.958 40.708 C 274.986 39.219,274.986 36.781,274.958 35.292 C 274.930 33.802,274.908 35.021,274.908 38.000 M286.081 61.917 C 286.081 78.050,286.101 84.625,286.125 76.528 C 286.149 68.432,286.149 55.232,286.125 47.195 C 286.101 39.159,286.081 45.783,286.081 61.917 M325.000 51.843 C 325.000 64.585,324.944 70.985,324.833 70.917 C 324.591 70.767,324.639 71.033,324.922 71.407 C 325.138 71.692,325.167 69.408,325.167 52.199 C 325.167 41.456,325.129 32.667,325.083 32.667 C 325.037 32.667,325.000 41.296,325.000 51.843 M21.167 33.250 C 20.938 33.381,20.825 33.488,20.917 33.488 C 21.008 33.488,21.271 33.381,21.500 33.250 C 21.729 33.119,21.842 33.012,21.750 33.012 C 21.658 33.012,21.396 33.119,21.167 33.250 M384.417 33.333 C 384.600 33.412,384.863 33.477,385.000 33.477 C 385.158 33.477,385.127 33.424,384.917 33.333 C 384.733 33.255,384.471 33.190,384.333 33.190 C 384.176 33.190,384.207 33.243,384.417 33.333 M386.873 33.771 C 387.139 33.850,387.166 34.308,387.210 39.470 L 387.257 45.083 387.253 39.419 C 387.250 33.878,387.243 33.754,386.917 33.720 C 386.662 33.694,386.651 33.706,386.873 33.771 M196.708 35.542 C 196.529 36.031,196.534 36.052,196.755 35.760 C 196.967 35.480,197.092 35.000,196.953 35.000 C 196.927 35.000,196.817 35.244,196.708 35.542 M306.833 36.167 C 307.020 36.533,307.211 36.833,307.257 36.833 C 307.303 36.833,307.187 36.533,307.000 36.167 C 306.813 35.800,306.622 35.500,306.577 35.500 C 306.531 35.500,306.646 35.800,306.833 36.167 M196.022 37.189 C 195.825 37.664,195.691 38.080,195.725 38.113 C 195.758 38.147,195.947 37.786,196.144 37.311 C 196.342 36.836,196.476 36.420,196.442 36.387 C 196.409 36.353,196.220 36.714,196.022 37.189 M170.062 37.167 C 170.209 37.708,170.712 38.843,170.777 38.778 C 170.815 38.741,170.654 38.306,170.420 37.813 C 170.186 37.320,170.025 37.029,170.062 37.167 M351.694 37.515 C 351.112 38.045,350.090 39.167,350.191 39.166 C 350.223 39.165,350.733 38.678,351.323 38.083 C 352.449 36.946,352.639 36.656,351.694 37.515 M171.178 40.083 C 171.178 40.175,171.286 40.438,171.417 40.667 C 171.548 40.896,171.655 41.008,171.655 40.917 C 171.655 40.825,171.548 40.563,171.417 40.333 C 171.286 40.104,171.178 39.992,171.178 40.083 M33.042 41.790 C 33.569 41.823,34.431 41.823,34.958 41.790 C 35.485 41.757,35.054 41.730,34.000 41.730 C 32.946 41.730,32.515 41.757,33.042 41.790 M371.132 41.790 C 371.708 41.823,372.608 41.823,373.132 41.790 C 373.655 41.757,373.183 41.730,372.083 41.730 C 370.983 41.731,370.555 41.758,371.132 41.790 M41.417 42.667 C 41.600 42.745,41.862 42.810,42.000 42.810 C 42.158 42.810,42.127 42.757,41.917 42.667 C 41.733 42.588,41.471 42.523,41.333 42.523 C 41.176 42.523,41.207 42.576,41.417 42.667 M365.037 42.944 C 364.736 43.092,364.518 43.240,364.552 43.274 C 364.623 43.345,365.667 42.843,365.667 42.738 C 365.667 42.637,365.644 42.644,365.037 42.944 M109.873 49.875 L 109.833 56.500 121.167 56.500 L 132.500 56.500 132.500 61.250 L 132.500 66.000 121.167 66.000 L 109.833 66.000 109.873 72.958 L 109.913 79.917 109.958 73.042 L 110.004 66.167 121.335 66.167 L 132.667 66.167 132.667 61.250 L 132.667 56.333 121.335 56.333 L 110.004 56.333 109.958 49.792 L 109.913 43.250 109.873 49.875 M248.747 49.875 L 248.750 56.417 260.042 56.459 L 271.333 56.502 271.333 61.250 L 271.333 65.998 260.042 66.041 L 248.750 66.083 248.747 72.917 L 248.744 79.750 248.791 72.958 L 248.837 66.167 260.169 66.167 L 271.500 66.167 271.500 61.250 L 271.500 56.333 260.169 56.333 L 248.837 56.333 248.791 49.833 L 248.744 43.333 248.747 49.875 M383.000 43.572 C 383.000 43.616,383.244 43.721,383.542 43.807 C 383.840 43.893,384.233 44.014,384.417 44.076 C 384.623 44.145,384.591 44.097,384.333 43.950 C 383.884 43.694,383.000 43.444,383.000 43.572 M47.983 44.682 C 48.386 44.861,48.745 44.977,48.781 44.941 C 48.853 44.869,47.569 44.326,47.372 44.345 C 47.305 44.352,47.580 44.503,47.983 44.682 M386.311 44.757 C 386.619 44.890,386.919 44.997,386.977 44.994 C 387.194 44.982,386.240 44.512,386.000 44.512 C 385.863 44.513,386.002 44.623,386.311 44.757 M347.262 45.095 C 347.201 45.339,347.183 45.571,347.222 45.611 C 347.261 45.650,347.343 45.482,347.405 45.238 C 347.466 44.994,347.484 44.762,347.445 44.723 C 347.406 44.683,347.323 44.851,347.262 45.095 M8.712 48.167 C 8.712 48.579,8.745 48.748,8.784 48.542 C 8.824 48.335,8.824 47.998,8.784 47.792 C 8.745 47.585,8.712 47.754,8.712 48.167 M346.893 49.333 C 346.893 50.204,346.922 50.560,346.956 50.125 C 346.990 49.690,346.990 48.977,346.956 48.542 C 346.922 48.106,346.893 48.462,346.893 49.333 M362.581 48.333 C 362.648 48.563,362.810 48.862,362.942 49.000 C 363.115 49.181,363.103 49.090,362.898 48.667 C 362.537 47.922,362.426 47.805,362.581 48.333 M8.712 50.500 C 8.712 50.913,8.745 51.081,8.784 50.875 C 8.824 50.669,8.824 50.331,8.784 50.125 C 8.745 49.919,8.712 50.087,8.712 50.500 M158.722 70.583 L 158.749 91.250 158.792 71.116 C 158.824 55.989,158.882 51.011,159.026 51.100 C 159.149 51.176,159.173 51.144,159.091 51.013 C 159.021 50.900,158.904 50.607,158.830 50.362 C 158.756 50.117,158.707 59.217,158.722 70.583 M202.354 50.438 C 202.244 50.679,202.194 50.917,202.244 50.966 C 202.293 51.015,202.352 50.949,202.374 50.819 C 202.396 50.690,202.453 59.733,202.500 70.917 L 202.585 91.250 202.626 70.625 C 202.648 59.281,202.641 50.000,202.610 50.000 C 202.579 50.000,202.464 50.197,202.354 50.438 M297.708 71.417 L 297.748 91.250 297.832 71.750 C 297.905 54.963,297.949 52.326,298.147 52.795 C 298.273 53.095,298.448 53.385,298.535 53.439 C 298.623 53.493,298.582 53.322,298.445 53.060 C 297.604 51.452,297.665 49.921,297.708 71.417 M315.371 52.792 C 315.583 53.284,316.000 53.965,316.000 53.818 C 316.000 53.662,315.329 52.333,315.250 52.333 C 315.208 52.333,315.263 52.540,315.371 52.792 M299.035 54.491 C 299.232 54.860,299.417 55.138,299.447 55.108 C 299.527 55.029,299.005 54.023,298.827 53.913 C 298.744 53.862,298.837 54.122,299.035 54.491 M375.420 55.630 C 375.686 55.858,376.529 56.182,376.428 56.018 C 376.376 55.934,376.092 55.782,375.796 55.679 C 375.500 55.575,375.331 55.554,375.420 55.630 M38.667 56.250 C 38.667 56.329,39.995 57.000,40.152 57.000 C 40.298 57.000,39.617 56.583,39.125 56.371 C 38.873 56.263,38.667 56.208,38.667 56.250 M161.339 56.856 C 161.336 56.914,161.443 57.214,161.577 57.523 C 161.711 57.831,161.821 57.971,161.821 57.833 C 161.821 57.593,161.351 56.639,161.339 56.856 M300.666 57.627 C 300.854 58.015,301.042 58.333,301.084 58.333 C 301.204 58.333,300.795 57.442,300.548 57.168 C 300.426 57.032,300.479 57.238,300.666 57.627 M349.167 57.958 C 349.441 58.394,349.900 59.012,350.187 59.333 L 350.708 59.917 350.287 59.324 C 350.055 58.998,349.628 58.379,349.338 57.949 C 348.650 56.930,348.525 56.937,349.167 57.958 M380.251 58.001 C 380.300 58.080,380.565 58.258,380.839 58.395 C 381.114 58.532,381.299 58.579,381.249 58.499 C 381.200 58.420,380.935 58.242,380.661 58.105 C 380.386 57.968,380.201 57.921,380.251 58.001 M12.953 60.337 C 13.248 60.646,13.518 60.866,13.552 60.825 C 13.587 60.784,13.345 60.530,13.016 60.262 L 12.417 59.774 12.953 60.337 M351.667 60.886 C 351.667 60.927,351.942 61.170,352.279 61.427 C 352.615 61.684,352.838 61.809,352.773 61.705 C 352.642 61.491,351.667 60.770,351.667 60.886 M385.417 61.107 C 386.265 61.860,386.578 62.080,386.251 61.693 C 386.069 61.478,385.770 61.225,385.585 61.131 C 385.401 61.036,385.325 61.026,385.417 61.107 M15.667 62.394 C 15.667 62.440,15.892 62.638,16.167 62.833 C 16.442 63.029,16.667 63.152,16.667 63.106 C 16.667 63.060,16.442 62.862,16.167 62.667 C 15.892 62.471,15.667 62.348,15.667 62.394 M353.667 62.396 C 353.667 62.435,353.934 62.625,354.260 62.817 C 354.586 63.010,354.807 63.092,354.749 62.999 C 354.638 62.819,353.667 62.278,353.667 62.396 M387.917 63.333 C 388.368 63.792,388.775 64.167,388.821 64.167 C 388.867 64.167,388.535 63.792,388.083 63.333 C 387.632 62.875,387.225 62.500,387.179 62.500 C 387.133 62.500,387.465 62.875,387.917 63.333 M51.463 65.488 C 51.802 66.032,52.105 66.450,52.137 66.419 C 52.206 66.350,51.039 64.500,50.926 64.500 C 50.883 64.500,51.125 64.945,51.463 65.488 M28.167 68.598 C 28.167 68.710,29.699 69.356,29.778 69.278 C 29.813 69.243,29.464 69.058,29.004 68.866 C 28.543 68.675,28.167 68.554,28.167 68.598 M183.042 69.375 C 182.862 69.865,182.867 69.886,183.088 69.593 C 183.300 69.313,183.425 68.833,183.287 68.833 C 183.261 68.833,183.151 69.077,183.042 69.375 M194.527 69.590 C 194.248 70.203,194.301 70.334,194.603 69.777 C 194.744 69.517,194.828 69.273,194.790 69.235 C 194.752 69.196,194.634 69.357,194.527 69.590 M193.662 71.676 C 193.561 71.864,193.503 72.093,193.533 72.183 C 193.563 72.274,193.674 72.120,193.780 71.841 C 193.999 71.260,193.933 71.169,193.662 71.676 M391.709 72.417 C 391.711 72.783,391.745 72.914,391.785 72.706 C 391.824 72.499,391.823 72.199,391.781 72.040 C 391.739 71.880,391.707 72.050,391.709 72.417 M35.583 72.273 C 35.675 72.353,36.012 72.644,36.333 72.918 L 36.915 73.417 36.499 72.943 C 36.271 72.683,35.933 72.392,35.750 72.298 C 35.567 72.203,35.492 72.192,35.583 72.273 M53.721 73.417 C 53.722 74.058,53.752 74.300,53.788 73.955 C 53.824 73.609,53.824 73.084,53.787 72.788 C 53.750 72.492,53.721 72.775,53.721 73.417 M391.714 74.917 C 391.716 75.375,391.748 75.543,391.786 75.289 C 391.825 75.036,391.824 74.661,391.784 74.456 C 391.744 74.251,391.713 74.458,391.714 74.917 M375.883 76.167 C 375.883 76.671,375.915 76.877,375.953 76.625 C 375.991 76.373,375.991 75.960,375.953 75.708 C 375.915 75.456,375.883 75.662,375.883 76.167 M37.712 76.167 C 37.712 76.579,37.745 76.748,37.784 76.542 C 37.824 76.335,37.824 75.998,37.784 75.792 C 37.745 75.585,37.712 75.754,37.712 76.167 M191.022 78.189 C 190.825 78.664,190.691 79.080,190.725 79.113 C 190.758 79.147,190.947 78.786,191.144 78.311 C 191.342 77.836,191.476 77.420,191.442 77.387 C 191.409 77.353,191.220 77.714,191.022 78.189 M37.219 78.180 C 37.021 78.542,36.929 78.794,37.014 78.741 C 37.199 78.627,37.716 77.660,37.635 77.579 C 37.604 77.548,37.417 77.819,37.219 78.180 M375.205 78.429 C 374.999 78.743,374.863 79.000,374.904 79.000 C 375.020 79.000,375.710 77.988,375.641 77.919 C 375.607 77.885,375.411 78.114,375.205 78.429 M311.500 78.358 C 311.500 78.560,312.199 79.856,312.270 79.786 C 312.314 79.742,312.188 79.416,311.990 79.061 C 311.615 78.389,311.500 78.223,311.500 78.358 M52.937 78.756 C 52.880 78.905,52.840 79.152,52.848 79.305 C 52.856 79.458,52.928 79.362,53.009 79.092 C 53.166 78.566,53.110 78.305,52.937 78.756 M348.080 84.331 C 348.083 89.866,348.102 90.247,348.378 90.272 C 348.580 90.291,348.594 90.275,348.422 90.221 C 348.206 90.154,348.164 89.330,348.124 84.280 L 348.077 78.417 348.080 84.331 M349.667 78.972 C 349.804 79.057,350.104 79.176,350.333 79.238 C 350.623 79.315,350.674 79.302,350.500 79.195 C 350.363 79.110,350.063 78.990,349.833 78.929 C 349.544 78.851,349.493 78.865,349.667 78.972 M36.083 79.602 L 35.417 80.198 36.125 79.668 C 36.735 79.212,36.955 78.993,36.792 79.002 C 36.769 79.004,36.450 79.273,36.083 79.602 M136.575 85.500 C 136.575 88.662,136.597 89.956,136.625 88.375 C 136.652 86.794,136.652 84.206,136.625 82.625 C 136.597 81.044,136.575 82.337,136.575 85.500 M33.833 80.750 C 33.604 80.881,33.492 80.988,33.583 80.988 C 33.675 80.988,33.938 80.881,34.167 80.750 C 34.396 80.619,34.508 80.512,34.417 80.512 C 34.325 80.512,34.063 80.619,33.833 80.750 M23.708 81.448 C 23.869 81.490,24.131 81.490,24.292 81.448 C 24.452 81.406,24.321 81.372,24.000 81.372 C 23.679 81.372,23.548 81.406,23.708 81.448 M361.875 81.448 C 362.035 81.490,362.298 81.490,362.458 81.448 C 362.619 81.406,362.488 81.372,362.167 81.372 C 361.846 81.372,361.715 81.406,361.875 81.448 M26.208 81.624 C 26.827 81.656,27.840 81.656,28.458 81.624 C 29.077 81.592,28.571 81.565,27.333 81.565 C 26.096 81.565,25.590 81.592,26.208 81.624 M364.375 81.624 C 364.994 81.656,366.006 81.656,366.625 81.624 C 367.244 81.592,366.738 81.565,365.500 81.565 C 364.262 81.565,363.756 81.592,364.375 81.624 M48.922 85.497 L 47.761 86.750 48.998 85.548 C 49.678 84.887,50.201 84.323,50.159 84.294 C 50.117 84.266,49.561 84.807,48.922 85.497 M172.635 85.083 C 172.719 85.267,172.830 85.529,172.881 85.667 C 172.961 85.883,172.975 85.881,172.987 85.657 C 172.994 85.514,172.883 85.251,172.741 85.074 C 172.486 84.755,172.484 84.755,172.635 85.083 M173.396 87.000 C 173.542 87.541,174.046 88.677,174.110 88.612 C 174.148 88.574,173.988 88.140,173.754 87.647 C 173.520 87.153,173.359 86.862,173.396 87.000 M45.917 87.931 L 45.417 88.361 45.958 88.002 C 46.256 87.805,46.500 87.612,46.500 87.572 C 46.500 87.447,46.429 87.491,45.917 87.931 M384.083 87.931 L 383.583 88.361 384.125 88.002 C 384.423 87.805,384.667 87.612,384.667 87.572 C 384.667 87.447,384.596 87.491,384.083 87.931 M382.861 88.580 C 382.270 88.906,382.011 89.243,382.583 88.942 C 383.270 88.581,383.616 88.336,383.417 88.352 C 383.325 88.360,383.075 88.462,382.861 88.580 M42.875 89.505 C 42.485 89.678,42.167 89.856,42.167 89.901 C 42.167 90.010,43.374 89.510,43.575 89.318 C 43.788 89.114,43.703 89.137,42.875 89.505 M11.917 90.667 C 12.100 90.745,12.362 90.810,12.500 90.810 C 12.658 90.810,12.627 90.757,12.417 90.667 C 12.233 90.588,11.971 90.523,11.833 90.523 C 11.676 90.523,11.707 90.576,11.917 90.667 M22.960 92.118 C 23.168 92.158,23.468 92.156,23.627 92.115 C 23.786 92.073,23.617 92.040,23.250 92.042 C 22.883 92.044,22.753 92.078,22.960 92.118 M31.875 92.115 C 32.035 92.157,32.298 92.157,32.458 92.115 C 32.619 92.073,32.487 92.039,32.167 92.039 C 31.846 92.039,31.715 92.073,31.875 92.115 M360.958 92.118 C 361.165 92.157,361.502 92.157,361.708 92.118 C 361.915 92.078,361.746 92.045,361.333 92.045 C 360.921 92.045,360.752 92.078,360.958 92.118 M370.042 92.115 C 370.202 92.157,370.465 92.157,370.625 92.115 C 370.785 92.073,370.654 92.039,370.333 92.039 C 370.012 92.039,369.881 92.073,370.042 92.115 M26.208 92.291 C 27.102 92.321,28.565 92.321,29.458 92.291 C 30.352 92.261,29.621 92.236,27.833 92.236 C 26.046 92.236,25.315 92.261,26.208 92.291 M364.375 92.291 C 365.269 92.321,366.731 92.321,367.625 92.291 C 368.519 92.261,367.787 92.236,366.000 92.236 C 364.212 92.236,363.481 92.261,364.375 92.291 " stroke="none" fill="#a9dcdc" fill-rule="evenodd"></path><path id="path1" d="M29.500 31.881 C 29.454 31.926,28.759 32.006,27.955 32.059 C 27.151 32.112,26.188 32.238,25.813 32.339 C 25.439 32.439,25.096 32.485,25.051 32.440 C 25.007 32.395,24.683 32.460,24.333 32.583 C 23.983 32.707,23.434 32.850,23.113 32.901 C 22.793 32.952,22.355 33.060,22.140 33.142 C 21.926 33.224,21.450 33.381,21.083 33.491 C 20.717 33.601,20.192 33.791,19.917 33.914 C 12.170 37.377,8.970 41.882,8.970 49.327 C 8.970 53.212,9.748 55.785,11.761 58.552 C 12.161 59.101,12.442 59.626,12.385 59.718 C 12.328 59.810,12.358 59.838,12.450 59.781 C 12.543 59.724,12.798 59.870,13.017 60.107 C 14.963 62.203,20.977 65.501,28.167 68.414 C 30.937 69.536,34.950 71.542,35.913 72.285 C 39.416 74.989,38.226 79.765,33.750 80.960 C 33.383 81.058,32.783 81.230,32.417 81.342 C 32.003 81.469,30.263 81.570,27.833 81.609 C 23.984 81.671,22.704 81.578,19.250 80.981 C 17.749 80.722,14.743 80.015,12.917 79.492 C 12.275 79.308,11.570 79.119,11.349 79.071 C 11.129 79.023,10.820 78.915,10.663 78.831 C 10.180 78.573,10.167 78.724,10.167 84.528 L 10.167 90.167 10.677 90.167 C 10.957 90.167,11.152 90.223,11.110 90.292 C 11.068 90.360,11.345 90.434,11.725 90.454 C 12.106 90.475,12.904 90.600,13.500 90.732 C 14.904 91.044,17.045 91.407,17.218 91.362 C 17.293 91.342,18.005 91.438,18.802 91.575 C 22.876 92.273,32.260 92.273,35.571 91.576 C 36.219 91.439,37.162 91.242,37.667 91.138 C 42.943 90.047,48.020 87.006,50.612 83.382 C 52.981 80.072,54.184 74.563,53.353 70.833 C 53.261 70.421,53.152 69.890,53.109 69.653 C 52.201 64.573,47.263 60.225,37.417 55.833 C 36.958 55.628,35.881 55.132,35.023 54.730 C 34.164 54.329,33.434 54.000,33.400 54.000 C 33.335 54.000,30.832 52.828,28.583 51.745 C 25.105 50.069,24.167 49.070,24.167 47.041 C 24.167 44.754,25.968 42.711,28.371 42.272 C 28.579 42.234,29.050 42.129,29.417 42.039 C 31.039 41.639,37.092 41.627,38.962 42.020 C 39.353 42.102,39.917 42.201,40.214 42.239 C 41.371 42.387,44.408 43.180,45.917 43.727 C 46.192 43.827,46.492 43.924,46.583 43.943 C 46.675 43.962,47.256 44.166,47.875 44.397 L 49.000 44.816 49.000 39.324 C 49.000 33.944,48.993 33.833,48.667 33.833 C 48.262 33.833,48.390 33.856,47.139 33.564 C 46.570 33.431,45.777 33.290,45.377 33.249 C 44.977 33.209,44.591 33.140,44.521 33.096 C 44.451 33.053,43.948 32.971,43.405 32.915 C 42.861 32.859,42.154 32.747,41.833 32.665 C 41.512 32.583,40.762 32.478,40.167 32.431 C 39.571 32.383,38.714 32.274,38.263 32.189 C 37.812 32.103,37.343 32.071,37.221 32.117 C 37.100 32.164,36.869 32.148,36.708 32.081 C 36.376 31.943,29.627 31.755,29.500 31.881 M367.667 31.883 C 367.621 31.930,366.946 32.011,366.167 32.064 C 357.239 32.671,349.840 37.457,347.845 43.917 C 345.488 51.548,348.175 58.960,354.698 62.822 C 357.597 64.538,361.084 66.236,365.333 68.001 C 366.479 68.477,367.510 68.943,367.625 69.037 C 367.740 69.131,367.833 69.157,367.833 69.094 C 367.833 69.032,368.040 69.091,368.292 69.226 C 368.544 69.360,369.050 69.600,369.417 69.758 C 370.072 70.041,371.767 70.873,372.750 71.394 C 377.330 73.822,377.042 79.387,372.260 80.866 C 368.845 81.922,362.557 81.971,357.540 80.982 C 357.057 80.886,356.457 80.783,356.206 80.751 C 355.663 80.682,353.126 80.097,351.833 79.743 C 351.329 79.604,350.617 79.409,350.250 79.309 C 349.883 79.209,349.311 79.027,348.977 78.906 C 348.127 78.595,348.167 78.319,348.167 84.528 L 348.167 90.167 348.656 90.167 C 348.925 90.167,349.347 90.243,349.593 90.337 C 349.839 90.431,350.313 90.542,350.645 90.583 C 350.978 90.625,351.587 90.732,352.000 90.820 C 353.578 91.159,355.101 91.391,355.542 91.360 C 355.794 91.342,356.000 91.402,356.000 91.492 C 356.000 91.582,356.104 91.616,356.231 91.567 C 356.359 91.519,356.902 91.556,357.440 91.652 C 360.946 92.273,370.641 92.228,373.731 91.577 C 374.383 91.440,375.329 91.245,375.833 91.145 C 376.337 91.045,377.050 90.852,377.417 90.716 C 377.783 90.580,378.105 90.484,378.132 90.502 C 378.250 90.581,381.422 89.277,382.529 88.695 C 388.596 85.504,391.561 80.600,391.565 73.750 C 391.569 68.017,389.959 64.716,385.583 61.483 C 384.850 60.941,384.175 60.438,384.083 60.366 C 383.255 59.712,373.882 54.833,373.454 54.833 C 373.399 54.833,372.730 54.544,371.968 54.190 C 371.207 53.836,370.058 53.305,369.417 53.009 C 363.352 50.213,362.315 49.351,362.300 47.097 C 362.282 44.522,363.895 42.876,367.179 42.116 C 369.281 41.629,374.790 41.582,377.154 42.031 C 377.652 42.125,378.214 42.220,378.404 42.241 C 379.594 42.374,383.821 43.566,386.042 44.396 L 387.167 44.816 387.167 39.335 L 387.167 33.854 386.375 33.749 C 385.445 33.625,384.053 33.374,383.000 33.139 C 382.587 33.047,381.966 32.946,381.619 32.913 C 381.272 32.881,380.584 32.771,380.089 32.668 C 379.594 32.565,379.015 32.475,378.803 32.468 C 378.590 32.460,377.824 32.359,377.100 32.242 C 376.376 32.125,375.682 32.068,375.558 32.116 C 375.435 32.163,375.202 32.148,375.042 32.081 C 374.706 31.941,367.792 31.755,367.667 31.883 M62.833 61.917 L 62.833 91.000 71.000 91.000 L 79.167 91.000 79.167 61.917 L 79.167 32.833 71.000 32.833 L 62.833 32.833 62.833 61.917 M94.167 61.917 L 94.167 91.000 115.333 91.000 L 136.500 91.000 136.500 85.417 L 136.500 79.833 123.170 79.833 L 109.841 79.833 109.795 72.917 L 109.750 66.000 121.125 66.000 L 132.500 66.000 132.500 61.250 L 132.500 56.500 121.167 56.500 L 109.833 56.500 109.833 49.833 L 109.833 43.167 122.833 43.167 L 135.833 43.167 135.833 38.000 L 135.833 32.833 115.000 32.833 L 94.167 32.833 94.167 61.917 M147.167 61.917 L 147.167 91.000 152.833 91.000 L 158.500 91.000 158.500 70.407 C 158.500 59.081,158.563 49.853,158.640 49.900 C 158.718 49.948,159.138 50.871,159.574 51.952 C 160.010 53.033,160.430 54.067,160.508 54.250 C 160.586 54.433,160.961 55.371,161.342 56.333 C 161.723 57.296,162.100 58.233,162.180 58.417 C 162.260 58.600,163.117 60.737,164.085 63.167 C 165.053 65.596,165.910 67.733,165.990 67.917 C 166.107 68.186,166.962 70.314,167.664 72.083 C 168.354 73.823,169.614 76.969,170.301 78.667 C 171.901 82.623,172.168 83.363,172.058 83.540 C 171.998 83.638,172.020 83.674,172.107 83.620 C 172.194 83.567,172.443 83.986,172.661 84.553 C 172.880 85.120,173.452 86.558,173.933 87.750 C 174.414 88.942,174.936 90.273,175.093 90.708 L 175.379 91.500 180.411 91.500 L 185.444 91.500 185.622 91.125 C 185.720 90.919,186.563 88.875,187.495 86.583 C 190.279 79.734,192.506 74.282,192.736 73.750 C 192.856 73.475,193.029 73.063,193.123 72.833 C 193.216 72.604,193.389 72.192,193.507 71.917 C 193.625 71.642,193.740 71.342,193.762 71.250 C 193.784 71.158,194.452 69.508,195.248 67.583 C 196.044 65.658,196.757 63.933,196.832 63.750 C 196.908 63.567,197.733 61.542,198.665 59.250 C 199.597 56.958,200.422 54.933,200.498 54.750 C 200.574 54.567,201.031 53.442,201.514 52.250 C 201.996 51.058,202.453 50.012,202.529 49.925 C 202.605 49.838,202.667 59.044,202.667 70.383 L 202.667 91.000 210.333 91.000 L 218.000 91.000 218.000 61.917 L 218.000 32.833 208.020 32.833 L 198.040 32.833 197.829 33.375 C 197.485 34.254,197.228 34.884,196.996 35.417 C 196.876 35.692,196.760 35.992,196.737 36.083 C 196.704 36.217,195.488 39.214,194.844 40.750 C 194.767 40.933,194.314 42.058,193.837 43.250 C 192.794 45.857,192.692 46.109,192.419 46.750 C 192.249 47.148,191.191 49.774,190.337 51.917 C 190.264 52.100,189.718 53.450,189.123 54.917 C 188.528 56.383,187.577 58.746,187.009 60.167 C 186.441 61.587,185.894 62.938,185.794 63.167 C 185.693 63.396,185.593 63.658,185.570 63.750 C 185.532 63.906,183.991 67.689,183.669 68.417 C 183.588 68.600,183.427 69.031,183.311 69.375 C 183.001 70.292,182.952 70.226,181.918 67.542 C 181.398 66.190,180.772 64.597,180.527 64.002 C 180.283 63.408,180.078 62.883,180.071 62.836 C 180.065 62.789,179.975 62.563,179.872 62.333 C 179.691 61.929,178.559 59.066,175.920 52.333 C 175.219 50.546,174.483 48.671,174.284 48.167 C 174.085 47.663,173.915 47.212,173.907 47.167 C 173.899 47.121,173.811 46.896,173.711 46.667 C 173.611 46.438,173.326 45.725,173.077 45.083 C 172.829 44.442,172.529 43.692,172.410 43.417 C 172.291 43.142,171.917 42.204,171.577 41.333 C 171.238 40.462,170.678 39.037,170.333 38.167 C 169.988 37.296,169.439 35.908,169.113 35.083 C 168.787 34.258,168.473 33.415,168.415 33.208 L 168.311 32.833 157.739 32.833 L 147.167 32.833 147.167 61.917 M233.167 61.917 L 233.167 91.000 254.250 91.000 L 275.333 91.000 275.333 85.415 L 275.333 79.829 262.000 79.873 L 248.667 79.917 248.667 72.958 L 248.667 66.000 260.000 66.000 L 271.333 66.000 271.333 61.250 L 271.333 56.500 260.000 56.500 L 248.667 56.500 248.667 49.833 L 248.667 43.167 261.750 43.167 L 274.833 43.167 274.833 38.000 L 274.833 32.833 254.000 32.833 L 233.167 32.833 233.167 61.917 M286.167 61.915 L 286.167 91.000 291.833 91.000 L 297.500 91.000 297.500 71.250 C 297.500 60.387,297.557 51.500,297.627 51.500 C 297.753 51.500,297.960 51.883,300.910 57.583 C 302.386 60.435,302.936 61.491,305.165 65.750 C 305.693 66.758,306.707 68.708,307.418 70.083 C 308.130 71.458,309.066 73.258,309.499 74.083 C 309.932 74.908,310.888 76.746,311.624 78.167 C 315.752 86.140,317.627 89.741,318.002 90.417 L 318.279 90.917 327.389 90.960 L 336.500 91.003 336.500 61.918 L 336.500 32.833 330.834 32.833 L 325.168 32.833 325.126 52.375 L 325.083 71.917 323.981 69.750 C 323.374 68.558,322.353 66.571,321.712 65.333 C 320.546 63.085,318.869 59.820,315.333 52.917 C 314.300 50.900,312.913 48.200,312.250 46.917 C 311.588 45.633,310.030 42.596,308.788 40.167 C 307.546 37.737,306.193 35.112,305.781 34.333 L 305.031 32.917 295.599 32.874 L 286.167 32.831 286.167 61.915 " stroke="none" fill="#049c9c" fill-rule="evenodd"></path><path id="path2" d="M28.542 31.948 C 28.702 31.990,28.965 31.990,29.125 31.948 C 29.285 31.906,29.154 31.872,28.833 31.872 C 28.512 31.872,28.381 31.906,28.542 31.948 M35.375 31.948 C 35.535 31.990,35.798 31.990,35.958 31.948 C 36.119 31.906,35.987 31.872,35.667 31.872 C 35.346 31.872,35.215 31.906,35.375 31.948 M116.304 43.292 C 119.909 43.317,125.759 43.317,129.304 43.292 C 132.849 43.267,129.900 43.246,122.750 43.246 C 115.600 43.246,112.699 43.267,116.304 43.292 M255.113 43.292 C 258.704 43.317,264.629 43.317,268.279 43.292 C 271.930 43.267,268.992 43.246,261.750 43.246 C 254.508 43.246,251.522 43.267,255.113 43.292 M275.408 85.333 C 275.408 88.404,275.431 89.660,275.458 88.125 C 275.486 86.590,275.486 84.077,275.458 82.542 C 275.431 81.006,275.408 82.262,275.408 85.333 M232.892 91.039 C 232.851 91.107,242.402 91.145,254.117 91.125 C 265.832 91.105,272.004 91.068,267.833 91.044 C 248.130 90.930,232.961 90.928,232.892 91.039 M66.780 91.125 C 68.997 91.151,72.672 91.151,74.947 91.125 C 77.222 91.099,75.408 91.077,70.917 91.077 C 66.425 91.077,64.564 91.099,66.780 91.125 M104.708 91.125 C 110.552 91.149,120.115 91.149,125.958 91.125 C 131.802 91.101,127.021 91.081,115.333 91.081 C 103.646 91.081,98.865 91.101,104.708 91.125 M149.958 91.125 C 151.540 91.152,154.127 91.152,155.708 91.125 C 157.290 91.097,155.996 91.075,152.833 91.075 C 149.671 91.075,148.377 91.097,149.958 91.125 M206.458 91.125 C 208.590 91.151,212.077 91.151,214.208 91.125 C 216.340 91.098,214.596 91.077,210.333 91.077 C 206.071 91.077,204.327 91.098,206.458 91.125 M288.958 91.125 C 290.540 91.152,293.127 91.152,294.708 91.125 C 296.290 91.097,294.996 91.075,291.833 91.075 C 288.671 91.075,287.377 91.097,288.958 91.125 M322.887 91.125 C 325.437 91.151,329.562 91.151,332.053 91.125 C 334.545 91.099,332.458 91.078,327.417 91.078 C 322.375 91.078,320.337 91.099,322.887 91.125 M180.500 91.500 L 175.417 91.591 180.448 91.629 C 183.665 91.653,185.517 91.607,185.583 91.500 C 185.640 91.408,185.663 91.350,185.635 91.371 C 185.607 91.392,183.296 91.450,180.500 91.500 " stroke="none" fill="#5abebe" fill-rule="evenodd"></path><path id="path3" d="M232.910 32.875 C 232.867 32.990,232.850 46.096,232.874 62.000 L 232.917 90.917 233.000 61.792 C 233.046 45.773,233.062 32.667,233.036 32.667 C 233.011 32.667,232.954 32.760,232.910 32.875 M391.709 73.583 C 391.711 73.950,391.745 74.080,391.785 73.873 C 391.824 73.666,391.823 73.366,391.781 73.206 C 391.739 73.047,391.707 73.217,391.709 73.583 " stroke="none" fill="#78c8c8" fill-rule="evenodd"></path><path id="path4" d="M66.875 32.792 C 69.144 32.818,72.856 32.818,75.125 32.792 C 77.394 32.765,75.537 32.744,71.000 32.744 C 66.462 32.744,64.606 32.765,66.875 32.792 M94.077 32.875 C 94.033 32.990,94.017 46.133,94.041 62.083 L 94.084 91.083 94.125 61.959 L 94.167 32.835 114.958 32.792 L 135.750 32.749 114.953 32.708 C 98.439 32.675,94.140 32.710,94.077 32.875 M152.375 32.792 C 155.285 32.817,160.048 32.817,162.958 32.792 C 165.869 32.766,163.487 32.745,157.667 32.745 C 151.846 32.745,149.465 32.766,152.375 32.792 M197.944 32.778 C 197.883 32.839,197.834 32.970,197.836 33.069 C 197.837 33.178,197.891 33.167,197.970 33.043 C 198.072 32.883,200.355 32.826,208.092 32.792 L 218.083 32.747 208.069 32.707 C 202.562 32.685,198.006 32.717,197.944 32.778 M233.077 32.875 C 233.033 32.990,233.017 46.096,233.041 62.000 L 233.084 90.917 233.125 61.876 L 233.167 32.835 254.042 32.792 L 274.917 32.749 254.036 32.708 C 237.455 32.675,233.140 32.710,233.077 32.875 M289.500 32.788 C 298.328 32.903,305.128 32.905,305.058 32.792 C 305.015 32.723,300.729 32.684,295.532 32.705 C 290.335 32.726,287.621 32.763,289.500 32.788 M330.833 32.791 L 336.499 32.838 336.542 61.919 L 336.585 91.000 336.584 61.875 L 336.583 32.750 330.875 32.747 L 325.167 32.743 330.833 32.791 M49.075 39.417 C 49.075 42.442,49.097 43.703,49.125 42.219 C 49.152 40.735,49.152 38.260,49.125 36.719 C 49.097 35.178,49.075 36.392,49.075 39.417 M13.073 38.208 L 12.583 38.750 13.125 38.260 C 13.423 37.991,13.667 37.748,13.667 37.719 C 13.667 37.590,13.529 37.703,13.073 38.208 M375.833 41.897 C 375.833 41.932,376.021 41.997,376.250 42.041 C 376.479 42.085,376.667 42.056,376.667 41.977 C 376.667 41.898,376.479 41.833,376.250 41.833 C 376.021 41.833,375.833 41.862,375.833 41.897 M347.126 46.250 C 347.082 46.479,347.111 46.667,347.190 46.667 C 347.269 46.667,347.333 46.479,347.333 46.250 C 347.333 46.021,347.305 45.833,347.269 45.833 C 347.234 45.833,347.170 46.021,347.126 46.250 M8.895 49.333 C 8.895 50.296,8.923 50.690,8.956 50.208 C 8.990 49.727,8.990 48.940,8.956 48.458 C 8.923 47.977,8.895 48.371,8.895 49.333 M158.581 70.417 C 158.581 81.783,158.601 86.409,158.625 80.695 C 158.649 74.982,158.649 65.682,158.625 60.029 C 158.601 54.375,158.581 59.050,158.581 70.417 M297.540 71.292 C 297.562 82.177,297.599 87.896,297.623 84.000 C 297.737 65.326,297.738 51.500,297.625 51.500 C 297.556 51.500,297.518 60.406,297.540 71.292 M36.500 72.917 C 36.811 73.237,37.103 73.500,37.149 73.500 C 37.195 73.500,36.978 73.237,36.667 72.917 C 36.356 72.596,36.064 72.333,36.018 72.333 C 35.972 72.333,36.189 72.596,36.500 72.917 M37.790 75.936 C 37.838 76.384,37.905 76.781,37.939 76.819 C 38.072 76.970,37.986 75.569,37.849 75.353 C 37.759 75.211,37.737 75.438,37.790 75.936 M10.036 84.458 C 10.056 87.644,10.093 89.350,10.119 88.250 C 10.236 83.212,10.239 78.666,10.125 78.667 C 10.056 78.667,10.016 81.273,10.036 84.458 M23.167 81.498 C 23.304 81.588,23.598 81.663,23.819 81.664 C 24.354 81.668,24.219 81.573,23.500 81.441 C 23.090 81.366,22.991 81.382,23.167 81.498 M361.252 81.503 C 361.307 81.593,361.586 81.667,361.871 81.667 C 362.501 81.667,362.437 81.583,361.700 81.443 C 361.356 81.378,361.188 81.400,361.252 81.503 " stroke="none" fill="#2eacac" fill-rule="evenodd"></path></g></svg>