<svg id="svg" version="1.1" xmlns="http://www.w3.org/2000/svg" xmlns:xlink="http://www.w3.org/1999/xlink" width="400" height="400" viewBox="0, 0, 400,400"><g id="svgg"><path id="path0" d="M59.000 175.116 C 58.016 175.192,55.219 175.646,54.583 175.834 C 48.810 177.538,45.907 179.549,43.943 183.206 C 42.070 186.695,42.075 192.306,43.956 195.821 C 45.563 198.826,47.544 200.390,53.167 203.100 C 55.881 204.408,55.690 204.321,57.750 205.170 C 65.671 208.431,67.434 210.162,65.982 213.251 C 64.327 216.772,54.790 216.996,44.289 213.759 L 43.495 213.514 43.539 218.370 L 43.583 223.225 44.500 223.442 C 60.524 227.232,74.352 224.086,78.248 215.766 C 81.083 209.709,79.233 202.474,73.974 199.055 C 73.576 198.796,73.151 198.490,73.030 198.375 C 72.909 198.261,72.702 198.167,72.571 198.167 C 72.440 198.167,72.333 198.105,72.333 198.030 C 72.333 197.816,64.517 193.833,64.097 193.833 C 64.005 193.833,60.337 192.104,58.507 191.197 C 54.023 188.977,54.224 185.395,58.917 183.902 C 60.186 183.498,66.265 183.436,67.917 183.810 C 70.543 184.405,72.372 184.899,73.667 185.361 C 74.446 185.640,75.253 185.906,75.461 185.954 L 75.839 186.040 75.794 181.398 L 75.750 176.756 75.083 176.632 C 67.775 175.284,62.852 174.820,59.000 175.116 M337.000 175.116 C 332.951 175.427,327.402 177.254,325.863 178.781 C 325.742 178.902,325.591 179.000,325.527 179.000 C 325.345 179.000,323.469 180.846,322.901 181.583 C 319.714 185.724,319.695 193.371,322.863 197.370 C 324.432 199.351,326.157 200.605,329.917 202.495 C 332.862 203.976,333.177 204.120,336.750 205.624 C 342.708 208.132,344.068 209.145,344.284 211.233 C 344.444 212.783,343.764 214.025,342.285 214.884 C 339.004 216.789,329.045 216.160,321.708 213.584 C 321.545 213.526,321.500 214.561,321.500 218.404 L 321.500 223.297 322.042 223.384 C 322.340 223.433,323.408 223.630,324.417 223.822 C 344.394 227.642,357.451 222.039,357.408 209.667 C 357.383 202.548,354.241 199.290,342.167 193.865 C 334.284 190.323,333.333 189.664,333.333 187.733 C 333.333 185.616,334.936 184.209,338.000 183.635 C 339.137 183.422,344.962 183.552,346.000 183.813 C 346.412 183.917,347.537 184.191,348.500 184.422 C 349.462 184.654,350.400 184.909,350.583 184.989 C 351.325 185.314,353.368 186.000,353.596 186.000 C 353.804 186.000,353.832 185.337,353.794 181.375 L 353.750 176.750 353.083 176.646 C 352.717 176.588,351.517 176.377,350.417 176.176 C 345.068 175.198,340.562 174.842,337.000 175.116 M86.944 175.944 C 86.883 176.006,86.833 186.843,86.833 200.028 L 86.833 224.000 93.667 224.000 L 100.500 224.000 100.500 199.917 L 100.500 175.833 93.778 175.833 C 90.081 175.833,87.006 175.883,86.944 175.944 M112.500 199.917 L 112.500 224.000 130.083 224.000 L 147.667 224.000 147.667 219.333 L 147.667 214.667 136.667 214.667 L 125.667 214.667 125.667 209.083 L 125.667 203.500 135.000 203.500 L 144.333 203.500 144.333 199.417 L 144.333 195.333 135.000 195.333 L 125.667 195.333 125.667 190.000 L 125.667 184.667 136.417 184.667 L 147.167 184.667 147.167 180.250 L 147.167 175.833 129.833 175.833 L 112.500 175.833 112.500 199.917 M156.167 199.917 L 156.167 224.000 161.000 224.000 L 165.833 224.000 165.839 207.292 L 165.845 190.583 166.759 192.833 C 167.262 194.071,167.742 195.233,167.826 195.417 C 167.909 195.600,168.404 196.838,168.925 198.167 C 169.446 199.496,169.972 200.808,170.095 201.083 C 170.217 201.358,170.623 202.371,170.997 203.333 C 171.371 204.296,171.745 205.233,171.828 205.417 C 171.911 205.600,172.255 206.463,172.593 207.333 C 172.931 208.204,173.348 209.231,173.520 209.616 C 173.692 210.000,173.833 210.364,173.833 210.424 C 173.833 210.484,173.942 210.769,174.074 211.058 C 174.207 211.347,174.591 212.296,174.928 213.167 C 175.265 214.037,175.673 215.050,175.833 215.417 C 175.994 215.783,176.402 216.796,176.740 217.667 C 177.078 218.537,177.432 219.438,177.526 219.667 C 177.620 219.896,178.089 221.058,178.568 222.250 L 179.438 224.417 183.695 224.461 L 187.953 224.506 188.248 223.711 C 188.579 222.824,189.727 220.034,190.095 219.225 C 190.226 218.936,190.333 218.651,190.333 218.591 C 190.333 218.491,190.643 217.758,191.262 216.391 C 191.393 216.103,191.500 215.817,191.500 215.757 C 191.500 215.660,191.916 214.664,192.339 213.750 C 192.424 213.567,193.059 211.992,193.751 210.250 C 194.443 208.508,195.079 206.933,195.164 206.750 C 195.249 206.567,195.513 205.929,195.750 205.333 C 195.987 204.737,196.250 204.100,196.333 203.917 C 196.417 203.733,196.679 203.096,196.917 202.500 C 197.154 201.904,197.418 201.267,197.502 201.083 C 197.681 200.698,198.977 197.494,199.694 195.667 C 199.964 194.979,200.251 194.267,200.333 194.083 C 200.913 192.783,201.167 192.167,201.172 192.051 C 201.175 191.977,201.323 191.617,201.500 191.250 C 201.821 190.586,201.822 190.658,201.828 207.292 L 201.833 224.000 208.250 224.000 L 214.667 224.000 214.667 199.915 L 214.667 175.830 206.323 175.873 L 197.979 175.917 197.233 177.833 C 196.823 178.887,196.378 179.986,196.244 180.275 C 196.110 180.564,196.000 180.849,196.000 180.909 C 196.000 180.969,195.845 181.370,195.655 181.801 C 195.465 182.231,195.211 182.808,195.090 183.083 C 194.970 183.358,194.596 184.296,194.260 185.167 C 193.924 186.037,193.540 186.986,193.408 187.275 C 193.275 187.564,193.167 187.849,193.167 187.909 C 193.167 187.969,193.026 188.333,192.854 188.717 C 192.683 189.102,192.153 190.392,191.677 191.583 C 191.201 192.775,190.704 193.986,190.572 194.275 C 190.441 194.564,190.333 194.853,190.333 194.917 C 190.333 194.981,190.225 195.269,190.092 195.558 C 189.960 195.847,189.576 196.796,189.239 197.667 C 188.655 199.175,188.266 200.109,187.738 201.275 C 187.607 201.564,187.500 201.853,187.500 201.917 C 187.500 201.981,187.391 202.269,187.258 202.558 C 187.125 202.847,186.728 203.816,186.375 204.711 L 185.734 206.338 185.426 205.461 C 185.256 204.978,185.066 204.508,185.003 204.417 C 184.941 204.325,184.719 203.762,184.510 203.167 C 184.301 202.571,184.031 201.858,183.910 201.583 C 183.790 201.308,183.121 199.621,182.424 197.833 C 181.727 196.046,181.086 194.433,181.000 194.250 C 180.913 194.067,180.680 193.467,180.483 192.917 C 180.285 192.367,179.992 191.617,179.832 191.250 C 179.671 190.883,179.122 189.496,178.613 188.167 C 177.619 185.576,177.274 184.706,176.925 183.917 C 176.803 183.642,176.532 182.929,176.323 182.333 C 176.115 181.737,175.894 181.175,175.834 181.083 C 175.773 180.992,175.286 179.773,174.751 178.375 L 173.778 175.833 164.972 175.833 L 156.167 175.833 156.167 199.917 M226.833 199.917 L 226.833 224.000 244.333 224.000 L 261.833 224.000 261.833 219.333 L 261.833 214.667 250.833 214.667 L 239.833 214.667 239.833 209.083 L 239.833 203.500 249.167 203.500 L 258.500 203.500 258.500 199.417 L 258.500 195.333 249.167 195.333 L 239.833 195.333 239.833 190.000 L 239.833 184.667 250.583 184.667 L 261.333 184.667 261.333 180.250 L 261.333 175.833 244.083 175.833 L 226.833 175.833 226.833 199.917 M270.500 199.915 L 270.500 224.000 275.333 224.000 L 280.167 224.000 280.167 208.050 C 280.167 198.960,280.229 192.168,280.312 192.258 C 280.392 192.345,281.039 193.542,281.749 194.917 C 285.423 202.027,287.353 205.739,288.419 207.750 C 288.808 208.483,289.725 210.246,290.458 211.667 C 291.190 213.088,292.412 215.450,293.174 216.917 C 293.935 218.383,295.064 220.558,295.683 221.750 L 296.808 223.917 304.487 223.960 L 312.167 224.003 312.167 199.918 L 312.167 175.833 307.334 175.833 L 302.502 175.833 302.459 191.667 L 302.417 207.500 300.736 204.209 C 297.220 197.319,294.582 192.173,293.498 190.083 C 292.879 188.892,291.511 186.229,290.457 184.167 C 289.404 182.104,288.022 179.404,287.387 178.167 L 286.232 175.917 278.366 175.873 L 270.500 175.830 270.500 199.915 " stroke="none" fill="#049c9c" fill-rule="evenodd"></path></g></svg>