<svg id="svg" version="1.1" xmlns="http://www.w3.org/2000/svg" xmlns:xlink="http://www.w3.org/1999/xlink" width="400" height="320.3125" viewBox="0, 0, 400,320.3125"><g id="svgg"><path id="path0" d="M95.833 0.243 C 95.833 0.376,95.185 0.434,94.393 0.371 C 93.296 0.284,92.906 0.378,92.756 0.769 C 92.648 1.051,92.214 1.282,91.793 1.282 C 91.371 1.282,91.026 1.426,91.026 1.603 C 91.026 1.779,90.665 1.923,90.224 1.923 C 89.726 1.923,89.423 2.105,89.423 2.404 C 89.423 2.672,89.138 2.885,88.779 2.885 C 88.051 2.885,86.218 4.496,86.218 5.136 C 86.218 5.367,86.134 5.471,86.031 5.368 C 85.763 5.101,84.615 6.149,84.615 6.661 C 84.615 6.896,84.507 7.024,84.375 6.944 C 84.243 6.864,83.949 6.999,83.721 7.245 C 83.494 7.491,83.404 7.692,83.520 7.692 C 83.637 7.692,83.554 7.907,83.336 8.170 C 83.118 8.432,82.848 8.591,82.736 8.524 C 82.624 8.456,82.346 8.602,82.119 8.848 C 81.891 9.094,81.789 9.295,81.891 9.295 C 81.993 9.295,81.891 9.496,81.663 9.742 C 81.436 9.988,81.178 10.147,81.090 10.096 C 81.002 10.045,80.744 10.204,80.516 10.450 C 80.289 10.696,80.217 10.907,80.356 10.918 C 80.495 10.929,80.284 11.069,79.888 11.228 C 79.491 11.387,79.167 11.747,79.167 12.028 C 79.167 12.308,79.058 12.472,78.926 12.392 C 78.794 12.312,78.500 12.448,78.273 12.694 C 78.045 12.940,77.955 13.141,78.071 13.141 C 78.188 13.141,78.105 13.356,77.888 13.618 C 77.670 13.881,77.400 14.040,77.287 13.972 C 77.175 13.905,76.897 14.051,76.670 14.296 C 76.443 14.542,76.352 14.744,76.469 14.744 C 76.586 14.744,76.503 14.958,76.285 15.221 C 76.067 15.483,75.797 15.643,75.685 15.575 C 75.396 15.401,74.677 16.237,74.912 16.472 C 75.019 16.579,74.924 16.667,74.701 16.667 C 74.192 16.667,72.115 18.716,72.115 19.218 C 72.115 19.422,72.007 19.524,71.875 19.444 C 71.743 19.364,71.449 19.499,71.221 19.745 C 70.994 19.991,70.904 20.192,71.020 20.192 C 71.137 20.192,71.054 20.407,70.836 20.670 C 70.618 20.932,70.348 21.091,70.236 21.024 C 70.124 20.956,69.846 21.102,69.619 21.348 C 69.391 21.594,69.301 21.795,69.418 21.795 C 69.534 21.795,69.452 22.010,69.234 22.272 C 69.016 22.535,68.746 22.694,68.634 22.626 C 68.345 22.452,67.626 23.288,67.861 23.524 C 67.968 23.630,67.811 23.718,67.511 23.718 C 67.212 23.718,66.836 24.042,66.677 24.439 C 66.517 24.836,66.378 25.046,66.366 24.907 C 66.355 24.768,66.145 24.840,65.899 25.067 C 65.653 25.295,65.507 25.573,65.575 25.685 C 65.643 25.797,65.483 26.067,65.221 26.285 C 64.958 26.503,64.744 26.586,64.744 26.469 C 64.744 26.352,64.542 26.443,64.296 26.670 C 64.051 26.897,63.905 27.175,63.972 27.287 C 64.040 27.400,63.881 27.670,63.618 27.888 C 63.356 28.105,63.141 28.188,63.141 28.071 C 63.141 27.955,62.940 28.045,62.694 28.273 C 62.448 28.500,62.312 28.794,62.392 28.926 C 62.472 29.058,62.371 29.167,62.166 29.167 C 61.683 29.167,59.615 31.235,59.615 31.718 C 59.615 31.922,59.507 32.024,59.375 31.944 C 59.243 31.864,58.949 31.999,58.721 32.245 C 58.494 32.491,58.404 32.692,58.520 32.692 C 58.637 32.692,58.554 32.907,58.336 33.170 C 58.118 33.432,57.848 33.591,57.736 33.524 C 57.624 33.456,57.346 33.602,57.119 33.848 C 56.891 34.094,56.801 34.295,56.918 34.295 C 57.034 34.295,56.952 34.510,56.734 34.772 C 56.516 35.035,56.246 35.194,56.134 35.126 C 56.021 35.059,55.744 35.204,55.516 35.450 C 55.289 35.696,55.217 35.907,55.356 35.918 C 55.495 35.929,55.284 36.069,54.888 36.228 C 54.491 36.387,54.167 36.747,54.167 37.028 C 54.167 37.308,54.058 37.472,53.926 37.392 C 53.794 37.312,53.500 37.448,53.273 37.694 C 53.045 37.940,52.955 38.141,53.071 38.141 C 53.188 38.141,53.105 38.356,52.888 38.618 C 52.670 38.881,52.400 39.040,52.287 38.972 C 52.175 38.905,51.897 39.051,51.670 39.296 C 51.443 39.542,51.352 39.744,51.469 39.744 C 51.586 39.744,51.503 39.958,51.285 40.221 C 51.067 40.483,50.797 40.643,50.685 40.575 C 50.460 40.439,49.652 41.209,49.827 41.392 C 49.886 41.455,49.734 41.692,49.487 41.920 C 49.240 42.147,49.038 42.254,49.038 42.157 C 49.038 42.061,48.606 42.395,48.077 42.901 C 47.548 43.406,47.115 43.993,47.115 44.204 C 47.115 44.416,47.007 44.524,46.875 44.444 C 46.743 44.364,46.449 44.499,46.221 44.745 C 45.994 44.991,45.904 45.192,46.020 45.192 C 46.137 45.192,46.054 45.407,45.836 45.670 C 45.618 45.932,45.348 46.091,45.236 46.024 C 45.124 45.956,44.846 46.102,44.619 46.348 C 44.391 46.594,44.301 46.795,44.418 46.795 C 44.534 46.795,44.452 47.010,44.234 47.272 C 44.016 47.535,43.746 47.698,43.634 47.636 C 43.521 47.574,42.738 48.224,41.893 49.082 C 41.049 49.939,40.453 50.641,40.570 50.641 C 40.688 50.641,40.605 50.856,40.388 51.118 C 40.170 51.381,39.900 51.540,39.787 51.472 C 39.675 51.405,39.397 51.551,39.170 51.796 C 38.943 52.042,38.852 52.244,38.969 52.244 C 39.086 52.244,39.003 52.458,38.785 52.721 C 38.567 52.983,38.297 53.143,38.185 53.075 C 38.073 53.007,37.795 53.153,37.567 53.399 C 37.340 53.645,37.250 53.846,37.366 53.846 C 37.483 53.846,37.400 54.061,37.182 54.323 C 36.965 54.586,36.695 54.750,36.582 54.687 C 36.470 54.625,35.687 55.275,34.842 56.133 C 33.997 56.991,33.402 57.692,33.519 57.692 C 33.636 57.692,33.554 57.907,33.336 58.170 C 33.118 58.432,32.848 58.591,32.736 58.524 C 32.624 58.456,32.346 58.602,32.119 58.848 C 31.891 59.094,31.801 59.295,31.918 59.295 C 32.034 59.295,31.952 59.510,31.734 59.772 C 31.516 60.035,31.246 60.198,31.134 60.136 C 31.021 60.074,30.238 60.724,29.393 61.582 C 28.549 62.439,27.953 63.141,28.070 63.141 C 28.188 63.141,28.105 63.356,27.888 63.618 C 27.670 63.881,27.400 64.040,27.287 63.972 C 27.175 63.905,26.897 64.051,26.670 64.296 C 26.443 64.542,26.352 64.744,26.469 64.744 C 26.586 64.744,26.503 64.958,26.285 65.221 C 26.067 65.483,25.797 65.643,25.685 65.575 C 25.573 65.507,25.295 65.653,25.067 65.899 C 24.840 66.145,24.750 66.346,24.866 66.346 C 24.983 66.346,24.900 66.561,24.682 66.823 C 24.465 67.086,24.195 67.250,24.082 67.187 C 23.970 67.125,23.187 67.775,22.342 68.633 C 21.497 69.491,20.902 70.192,21.019 70.192 C 21.136 70.192,21.054 70.407,20.836 70.670 C 20.618 70.932,20.348 71.091,20.236 71.024 C 20.124 70.956,19.846 71.102,19.619 71.348 C 19.391 71.594,19.301 71.795,19.418 71.795 C 19.534 71.795,19.452 72.010,19.234 72.272 C 19.016 72.535,18.685 72.655,18.499 72.540 C 18.290 72.411,18.236 72.529,18.359 72.848 C 18.494 73.199,18.418 73.311,18.122 73.198 C 17.868 73.100,17.597 73.310,17.474 73.699 C 17.357 74.067,17.164 74.313,17.044 74.246 C 16.733 74.070,15.385 75.535,15.632 75.781 C 15.745 75.894,15.511 76.072,15.112 76.177 C 14.685 76.288,14.454 76.540,14.549 76.789 C 14.659 77.074,14.535 77.148,14.166 77.016 C 13.867 76.909,13.729 76.939,13.859 77.083 C 14.187 77.444,13.469 78.248,13.050 77.989 C 12.841 77.860,12.788 77.978,12.910 78.296 C 13.043 78.642,12.969 78.760,12.686 78.651 C 12.441 78.557,12.188 78.780,12.083 79.181 C 11.966 79.628,11.762 79.786,11.506 79.627 C 11.232 79.458,11.170 79.542,11.307 79.899 C 11.454 80.280,11.369 80.364,10.986 80.216 C 10.608 80.072,10.518 80.153,10.656 80.513 C 10.784 80.846,10.670 80.997,10.311 80.970 C 9.995 80.946,9.792 81.148,9.816 81.465 C 9.843 81.824,9.693 81.938,9.360 81.810 C 8.999 81.672,8.918 81.762,9.063 82.140 C 9.210 82.523,9.127 82.608,8.745 82.461 C 8.426 82.339,8.308 82.393,8.437 82.602 C 8.696 83.020,7.893 83.738,7.532 83.411 C 7.388 83.280,7.357 83.418,7.465 83.718 C 7.610 84.124,7.528 84.212,7.143 84.064 C 6.824 83.941,6.706 83.995,6.835 84.204 C 7.094 84.623,6.290 85.341,5.929 85.013 C 5.785 84.883,5.755 85.021,5.862 85.320 C 6.001 85.707,5.923 85.813,5.593 85.687 C 5.306 85.576,5.128 85.705,5.128 86.023 C 5.128 86.307,4.965 86.538,4.765 86.538 C 4.235 86.538,2.885 88.207,2.885 88.862 C 2.885 89.171,2.652 89.423,2.367 89.423 C 1.979 89.423,1.884 89.655,1.987 90.351 C 2.082 91.001,2.003 91.234,1.723 91.126 C 1.453 91.023,1.333 91.297,1.352 91.970 C 1.369 92.586,1.159 93.128,0.802 93.390 C 0.338 93.728,0.260 94.091,0.410 95.207 C 0.516 95.997,0.482 96.415,0.331 96.171 C 0.179 95.926,0.046 97.417,0.022 99.633 C -0.001 101.774,0.107 103.526,0.263 103.526 C 0.419 103.526,0.478 104.247,0.393 105.128 C 0.265 106.458,0.328 106.731,0.761 106.731 C 1.269 106.731,1.422 107.229,1.291 108.458 C 1.248 108.860,1.378 109.006,1.675 108.892 C 2.012 108.763,2.089 108.951,1.987 109.649 C 1.884 110.345,1.979 110.577,2.367 110.577 C 2.678 110.577,2.885 110.844,2.885 111.247 C 2.885 111.619,3.525 112.539,4.327 113.318 C 5.120 114.089,5.769 114.886,5.769 115.090 C 5.769 115.299,6.042 115.388,6.398 115.295 C 7.047 115.125,7.853 115.758,7.472 116.139 C 7.141 116.470,8.547 117.628,9.281 117.628 C 9.641 117.628,9.936 117.772,9.936 117.949 C 9.936 118.125,10.209 118.269,10.543 118.269 C 10.876 118.269,11.239 118.503,11.349 118.789 C 11.497 119.176,11.796 119.259,12.517 119.115 C 13.220 118.975,13.537 119.056,13.673 119.410 C 13.777 119.679,14.096 119.876,14.382 119.848 C 15.520 119.738,16.026 119.894,16.026 120.353 C 16.026 120.756,16.720 120.833,20.353 120.833 C 23.985 120.833,24.679 120.756,24.679 120.353 C 24.679 119.894,25.185 119.738,26.323 119.848 C 26.610 119.876,26.929 119.679,27.032 119.410 C 27.165 119.062,27.486 118.975,28.147 119.107 C 28.821 119.242,29.128 119.153,29.271 118.781 C 29.379 118.499,29.760 118.269,30.118 118.269 C 30.476 118.269,30.769 118.066,30.769 117.818 C 30.769 117.528,30.993 117.426,31.400 117.533 C 32.119 117.721,34.148 115.925,33.819 115.392 C 33.700 115.200,33.841 115.156,34.171 115.282 C 34.517 115.415,34.643 115.368,34.511 115.155 C 34.396 114.969,34.517 114.638,34.779 114.420 C 35.042 114.202,35.256 114.120,35.256 114.236 C 35.256 114.353,35.458 114.262,35.704 114.035 C 35.949 113.808,36.095 113.530,36.028 113.418 C 35.960 113.305,36.119 113.035,36.382 112.818 C 36.644 112.600,36.859 112.517,36.859 112.634 C 36.859 112.750,37.060 112.660,37.306 112.433 C 37.552 112.205,37.688 111.911,37.608 111.779 C 37.528 111.647,37.629 111.538,37.834 111.538 C 38.317 111.538,40.385 109.470,40.385 108.987 C 40.385 108.783,40.493 108.682,40.625 108.762 C 40.757 108.842,41.051 108.706,41.279 108.460 C 41.506 108.214,41.596 108.013,41.480 108.013 C 41.363 108.013,41.446 107.798,41.664 107.536 C 41.882 107.273,42.152 107.114,42.264 107.181 C 42.376 107.249,42.654 107.103,42.881 106.857 C 43.109 106.611,43.199 106.410,43.082 106.410 C 42.966 106.410,43.048 106.195,43.266 105.933 C 43.484 105.671,43.754 105.511,43.866 105.579 C 43.979 105.647,44.256 105.501,44.484 105.255 C 44.711 105.009,44.783 104.799,44.644 104.787 C 44.505 104.776,44.716 104.637,45.112 104.477 C 45.509 104.318,45.833 103.942,45.833 103.643 C 45.833 103.343,45.921 103.186,46.028 103.293 C 46.263 103.528,47.099 102.809,46.925 102.520 C 46.857 102.408,47.017 102.138,47.279 101.920 C 47.542 101.702,47.756 101.620,47.756 101.736 C 47.756 101.853,47.958 101.762,48.204 101.535 C 48.449 101.308,48.595 101.030,48.528 100.918 C 48.460 100.805,48.619 100.535,48.882 100.318 C 49.144 100.100,49.359 100.017,49.359 100.134 C 49.359 100.250,49.560 100.160,49.806 99.933 C 50.052 99.705,50.188 99.411,50.108 99.279 C 50.028 99.147,50.129 99.038,50.334 99.038 C 50.835 99.038,52.885 96.962,52.885 96.453 C 52.885 96.230,52.972 96.134,53.079 96.241 C 53.315 96.477,54.150 95.758,53.976 95.469 C 53.909 95.357,54.068 95.087,54.330 94.869 C 54.593 94.651,54.808 94.568,54.808 94.685 C 54.808 94.802,55.009 94.711,55.255 94.484 C 55.501 94.256,55.647 93.979,55.579 93.866 C 55.511 93.754,55.671 93.484,55.933 93.266 C 56.195 93.048,56.410 92.966,56.410 93.082 C 56.410 93.199,56.611 93.109,56.857 92.881 C 57.103 92.654,57.239 92.360,57.159 92.228 C 57.079 92.095,57.243 91.987,57.523 91.987 C 57.804 91.987,58.164 91.663,58.323 91.266 C 58.483 90.869,58.622 90.659,58.634 90.798 C 58.645 90.937,58.855 90.865,59.101 90.638 C 59.347 90.410,59.493 90.133,59.425 90.020 C 59.357 89.908,59.517 89.638,59.779 89.420 C 60.042 89.202,60.256 89.120,60.256 89.236 C 60.256 89.353,60.458 89.262,60.704 89.035 C 60.949 88.808,61.095 88.530,61.028 88.418 C 60.960 88.305,61.119 88.035,61.382 87.818 C 61.644 87.600,61.859 87.517,61.859 87.634 C 61.859 87.750,62.060 87.660,62.306 87.433 C 62.552 87.205,62.711 86.947,62.660 86.859 C 62.609 86.771,62.768 86.513,63.014 86.285 C 63.260 86.058,63.462 85.951,63.462 86.048 C 63.462 86.144,63.894 85.810,64.423 85.305 C 64.952 84.799,65.385 84.213,65.385 84.001 C 65.385 83.789,65.493 83.682,65.625 83.762 C 65.757 83.842,66.051 83.706,66.279 83.460 C 66.506 83.214,66.596 83.013,66.480 83.013 C 66.363 83.013,66.446 82.798,66.664 82.536 C 66.882 82.273,67.152 82.114,67.264 82.181 C 67.518 82.334,68.286 81.534,68.082 81.330 C 68.000 81.248,68.153 80.999,68.422 80.776 C 68.690 80.553,68.910 80.466,68.910 80.583 C 68.910 80.701,69.612 80.105,70.470 79.260 C 71.327 78.416,71.978 77.633,71.915 77.520 C 71.853 77.408,72.017 77.138,72.279 76.920 C 72.542 76.702,72.756 76.620,72.756 76.736 C 72.756 76.853,72.958 76.762,73.204 76.535 C 73.449 76.308,73.595 76.030,73.528 75.918 C 73.460 75.805,73.619 75.535,73.882 75.318 C 74.144 75.100,74.359 75.017,74.359 75.134 C 74.359 75.250,74.560 75.160,74.806 74.933 C 75.052 74.705,75.198 74.427,75.130 74.315 C 75.062 74.203,75.222 73.933,75.484 73.715 C 75.747 73.497,75.962 73.422,75.962 73.548 C 75.962 73.674,76.605 73.115,77.392 72.305 C 78.179 71.496,78.900 70.833,78.994 70.833 C 79.089 70.833,79.167 123.182,79.167 187.164 C 79.167 292.231,79.215 303.521,79.667 303.774 C 79.990 303.954,80.173 304.528,80.185 305.392 C 80.195 306.128,80.331 306.731,80.487 306.731 C 80.642 306.731,80.769 307.249,80.769 307.883 C 80.769 308.741,80.923 309.075,81.373 309.192 C 81.802 309.304,81.926 309.543,81.802 310.018 C 81.673 310.513,81.749 310.638,82.100 310.504 C 82.465 310.364,82.541 310.533,82.435 311.251 C 82.333 311.948,82.428 312.179,82.816 312.179 C 83.101 312.179,83.333 312.329,83.333 312.513 C 83.333 312.988,85.779 315.396,86.018 315.157 C 86.128 315.047,86.218 315.146,86.218 315.377 C 86.218 316.016,88.051 317.628,88.779 317.628 C 89.138 317.628,89.423 317.841,89.423 318.109 C 89.423 318.408,89.726 318.590,90.224 318.590 C 90.665 318.590,91.026 318.734,91.026 318.910 C 91.026 319.087,91.371 319.231,91.793 319.231 C 92.214 319.231,92.648 319.462,92.756 319.744 C 92.906 320.134,93.296 320.229,94.393 320.142 C 95.185 320.079,95.833 320.137,95.833 320.270 C 95.833 320.563,103.323 320.589,105.689 320.305 C 106.796 320.172,107.372 319.954,107.372 319.667 C 107.372 319.382,107.761 319.231,108.494 319.231 C 109.111 319.231,109.615 319.087,109.615 318.910 C 109.615 318.734,109.832 318.590,110.096 318.590 C 110.361 318.590,110.577 318.391,110.577 318.148 C 110.577 317.905,110.821 317.509,111.119 317.267 C 111.488 316.968,111.584 316.955,111.421 317.228 C 111.288 317.448,111.334 317.628,111.522 317.628 C 111.972 317.628,113.782 315.892,113.782 315.460 C 113.782 315.274,114.090 315.205,114.474 315.305 C 115.065 315.459,115.138 315.380,114.976 314.763 C 114.872 314.365,114.867 314.119,114.964 314.216 C 115.244 314.497,116.088 313.501,115.869 313.147 C 115.755 312.963,115.882 312.908,116.169 313.019 C 116.492 313.142,116.667 313.028,116.667 312.695 C 116.667 312.411,116.883 312.179,117.147 312.179 C 117.447 312.179,117.628 311.877,117.628 311.378 C 117.628 310.938,117.788 310.577,117.983 310.577 C 118.178 310.577,118.256 310.363,118.155 310.101 C 118.048 309.821,118.232 309.486,118.602 309.288 C 118.948 309.103,119.231 308.668,119.231 308.322 C 119.231 307.976,119.394 307.692,119.593 307.692 C 119.825 307.692,119.893 307.306,119.781 306.618 C 119.650 305.809,119.758 305.414,120.220 305.018 C 120.822 304.503,120.833 302.329,120.833 187.663 C 120.833 123.407,120.911 70.833,121.006 70.833 C 121.100 70.833,121.821 71.496,122.608 72.305 C 123.395 73.115,124.038 73.674,124.038 73.548 C 124.038 73.422,124.253 73.497,124.516 73.715 C 124.778 73.933,124.938 74.203,124.870 74.315 C 124.802 74.427,124.948 74.705,125.194 74.933 C 125.440 75.160,125.641 75.250,125.641 75.134 C 125.641 75.017,125.856 75.100,126.118 75.318 C 126.381 75.535,126.540 75.805,126.472 75.918 C 126.405 76.030,126.551 76.308,126.796 76.535 C 127.042 76.762,127.244 76.853,127.244 76.736 C 127.244 76.620,127.458 76.702,127.721 76.920 C 127.983 77.138,128.147 77.408,128.085 77.520 C 128.022 77.633,128.673 78.416,129.530 79.260 C 130.388 80.105,131.090 80.701,131.090 80.583 C 131.090 80.466,131.305 80.548,131.567 80.766 C 131.829 80.984,131.989 81.254,131.921 81.366 C 131.853 81.479,131.999 81.756,132.245 81.984 C 132.491 82.211,132.692 82.302,132.692 82.185 C 132.692 82.068,132.907 82.151,133.170 82.369 C 133.432 82.587,133.591 82.857,133.524 82.969 C 133.350 83.258,134.185 83.977,134.421 83.741 C 134.528 83.634,134.615 83.736,134.615 83.966 C 134.615 84.197,135.048 84.799,135.577 85.305 C 136.106 85.810,136.538 86.144,136.538 86.048 C 136.538 85.951,136.740 86.058,136.986 86.285 C 137.232 86.513,137.391 86.771,137.340 86.859 C 137.289 86.947,137.448 87.205,137.694 87.433 C 137.940 87.660,138.141 87.750,138.141 87.634 C 138.141 87.517,138.356 87.600,138.618 87.818 C 138.881 88.035,139.040 88.305,138.972 88.418 C 138.905 88.530,139.051 88.808,139.296 89.035 C 139.542 89.262,139.744 89.353,139.744 89.236 C 139.744 89.120,139.958 89.202,140.221 89.420 C 140.483 89.638,140.643 89.908,140.575 90.020 C 140.401 90.309,141.237 91.028,141.472 90.793 C 141.579 90.686,141.667 90.843,141.667 91.143 C 141.667 91.442,141.991 91.818,142.388 91.977 C 142.784 92.137,142.995 92.276,142.856 92.287 C 142.717 92.299,142.789 92.509,143.016 92.755 C 143.244 93.001,143.521 93.147,143.634 93.079 C 143.746 93.011,144.016 93.171,144.234 93.433 C 144.452 93.695,144.534 93.910,144.418 93.910 C 144.301 93.910,144.391 94.111,144.619 94.357 C 144.846 94.603,145.124 94.749,145.236 94.681 C 145.348 94.614,145.618 94.773,145.836 95.036 C 146.054 95.298,146.137 95.513,146.020 95.513 C 145.904 95.513,145.994 95.714,146.221 95.960 C 146.449 96.206,146.743 96.342,146.875 96.262 C 147.007 96.182,147.115 96.283,147.115 96.487 C 147.115 96.970,149.183 99.038,149.666 99.038 C 149.871 99.038,149.972 99.147,149.892 99.279 C 149.812 99.411,149.948 99.705,150.194 99.933 C 150.440 100.160,150.641 100.250,150.641 100.134 C 150.641 100.017,150.856 100.100,151.118 100.318 C 151.381 100.535,151.540 100.805,151.472 100.918 C 151.405 101.030,151.551 101.308,151.796 101.535 C 152.042 101.762,152.244 101.853,152.244 101.736 C 152.244 101.620,152.458 101.702,152.721 101.920 C 152.983 102.138,153.143 102.408,153.075 102.520 C 153.007 102.633,153.153 102.910,153.399 103.138 C 153.645 103.365,153.855 103.437,153.866 103.298 C 153.878 103.159,154.017 103.369,154.177 103.766 C 154.336 104.163,154.696 104.487,154.977 104.487 C 155.257 104.487,155.421 104.595,155.341 104.728 C 155.261 104.860,155.397 105.154,155.643 105.381 C 155.889 105.609,156.090 105.699,156.090 105.582 C 156.090 105.466,156.305 105.548,156.567 105.766 C 156.829 105.984,156.989 106.254,156.921 106.366 C 156.768 106.620,157.568 107.389,157.773 107.185 C 157.855 107.103,158.104 107.256,158.327 107.524 C 158.550 107.793,158.637 108.013,158.520 108.013 C 158.404 108.013,158.494 108.214,158.721 108.460 C 158.949 108.706,159.243 108.842,159.375 108.762 C 159.507 108.682,159.615 108.783,159.615 108.987 C 159.615 109.470,161.683 111.538,162.166 111.538 C 162.371 111.538,162.472 111.647,162.392 111.779 C 162.312 111.911,162.448 112.205,162.694 112.433 C 162.940 112.660,163.141 112.750,163.141 112.634 C 163.141 112.517,163.356 112.600,163.618 112.818 C 163.881 113.035,164.040 113.305,163.972 113.418 C 163.744 113.796,164.637 114.423,165.404 114.423 C 165.590 114.423,165.655 114.565,165.547 114.740 C 165.259 115.206,167.788 117.628,168.565 117.628 C 168.931 117.628,169.231 117.789,169.231 117.986 C 169.231 118.184,169.512 118.270,169.861 118.179 C 170.297 118.065,170.553 118.211,170.693 118.653 C 170.862 119.184,171.078 119.256,171.986 119.086 C 172.827 118.928,173.077 118.990,173.077 119.355 C 173.077 119.678,173.395 119.820,174.078 119.800 C 174.699 119.783,175.192 119.973,175.376 120.303 C 175.800 121.060,183.974 121.108,183.974 120.353 C 183.974 120.020,184.309 119.872,185.062 119.872 C 185.715 119.872,186.220 119.687,186.327 119.408 C 186.456 119.072,186.818 118.996,187.644 119.130 C 188.271 119.232,188.782 119.180,188.782 119.013 C 188.782 118.848,189.009 118.432,189.287 118.090 C 189.564 117.748,189.700 117.648,189.588 117.869 C 189.477 118.089,189.538 118.269,189.725 118.269 C 189.911 118.269,190.064 118.066,190.064 117.818 C 190.064 117.531,190.288 117.426,190.684 117.530 C 191.404 117.718,192.805 116.571,192.485 116.054 C 192.356 115.845,192.467 115.786,192.772 115.903 C 193.045 116.008,193.269 115.935,193.269 115.739 C 193.269 115.544,193.476 115.385,193.728 115.385 C 193.980 115.385,194.232 115.060,194.289 114.663 C 194.354 114.200,194.649 113.906,195.112 113.840 C 195.509 113.784,195.833 113.531,195.833 113.279 C 195.833 113.027,195.978 112.821,196.154 112.821 C 196.330 112.821,196.474 112.668,196.474 112.481 C 196.474 112.294,196.308 112.245,196.104 112.370 C 195.880 112.509,195.821 112.459,195.954 112.243 C 196.075 112.047,196.386 111.968,196.645 112.068 C 196.984 112.198,197.115 112.015,197.115 111.412 C 197.115 110.883,197.292 110.577,197.596 110.577 C 197.895 110.577,198.077 110.274,198.077 109.776 C 198.077 109.335,198.221 108.974,198.397 108.974 C 198.574 108.974,198.718 108.614,198.718 108.173 C 198.718 107.675,198.900 107.372,199.199 107.372 C 199.534 107.372,199.679 107.033,199.679 106.250 C 199.679 105.633,199.805 105.128,199.959 105.128 C 200.320 105.128,200.312 95.225,199.952 95.002 C 199.802 94.910,199.679 94.338,199.679 93.731 C 199.679 92.964,199.533 92.628,199.199 92.628 C 198.900 92.628,198.718 92.325,198.718 91.827 C 198.718 91.365,198.533 91.026,198.282 91.026 C 197.989 91.026,197.896 90.762,197.998 90.224 C 198.107 89.659,198.011 89.423,197.673 89.423 C 197.409 89.423,196.996 89.179,196.754 88.881 C 196.455 88.512,196.443 88.416,196.715 88.579 C 196.939 88.714,197.115 88.664,197.115 88.466 C 197.115 88.016,195.652 86.538,195.207 86.538 C 195.023 86.538,194.872 86.248,194.872 85.892 C 194.872 84.995,114.896 5.001,114.248 5.250 C 113.992 5.348,113.782 5.268,113.782 5.073 C 113.782 4.626,111.984 2.885,111.522 2.885 C 111.334 2.885,111.288 3.065,111.421 3.285 C 111.584 3.557,111.488 3.545,111.119 3.246 C 110.821 3.004,110.577 2.591,110.577 2.327 C 110.577 1.989,110.341 1.893,109.776 2.002 C 109.238 2.104,108.974 2.011,108.974 1.718 C 108.974 1.467,108.635 1.282,108.173 1.282 C 107.711 1.282,107.372 1.097,107.372 0.846 C 107.372 0.559,106.796 0.341,105.689 0.208 C 103.323 -0.077,95.833 -0.050,95.833 0.243 M293.830 0.233 C 293.056 0.314,292.628 0.523,292.628 0.821 C 292.628 1.099,292.311 1.282,291.827 1.282 C 291.365 1.282,291.026 1.467,291.026 1.718 C 291.026 2.011,290.762 2.104,290.224 2.002 C 289.659 1.893,289.423 1.989,289.423 2.327 C 289.423 2.591,289.179 3.004,288.881 3.246 C 288.512 3.545,288.416 3.557,288.579 3.285 C 288.712 3.065,288.666 2.885,288.478 2.885 C 288.028 2.885,286.218 4.621,286.218 5.053 C 286.218 5.238,285.929 5.313,285.577 5.221 C 285.140 5.107,284.936 5.211,284.936 5.549 C 284.936 5.821,284.710 6.269,284.435 6.545 C 284.159 6.821,284.022 7.190,284.131 7.366 C 284.245 7.550,284.118 7.604,283.831 7.494 C 283.508 7.370,283.333 7.484,283.333 7.818 C 283.333 8.102,283.117 8.333,282.853 8.333 C 282.553 8.333,282.372 8.636,282.372 9.135 C 282.372 9.575,282.212 9.936,282.017 9.936 C 281.822 9.936,281.744 10.150,281.845 10.412 C 281.952 10.692,281.768 11.026,281.398 11.224 C 281.052 11.410,280.769 11.844,280.769 12.191 C 280.769 12.537,280.606 12.821,280.407 12.821 C 280.175 12.821,280.107 13.207,280.219 13.895 C 280.350 14.704,280.242 15.099,279.780 15.494 C 279.178 16.010,279.167 18.184,279.167 132.849 C 279.167 197.106,279.089 249.679,278.994 249.679 C 278.900 249.679,278.179 249.017,277.392 248.208 C 276.605 247.398,275.962 246.839,275.962 246.965 C 275.962 247.091,275.747 247.016,275.484 246.798 C 275.222 246.580,275.062 246.310,275.130 246.198 C 275.198 246.085,275.052 245.808,274.806 245.580 C 274.560 245.353,274.359 245.262,274.359 245.379 C 274.359 245.496,274.144 245.413,273.882 245.195 C 273.619 244.977,273.460 244.707,273.528 244.595 C 273.595 244.483,273.449 244.205,273.204 243.978 C 272.958 243.750,272.756 243.660,272.756 243.777 C 272.756 243.893,272.542 243.811,272.279 243.593 C 272.017 243.375,271.853 243.105,271.915 242.993 C 271.978 242.880,271.327 242.097,270.470 241.252 C 269.612 240.407,268.910 239.812,268.910 239.929 C 268.910 240.047,268.690 239.960,268.422 239.737 C 268.153 239.514,268.000 239.265,268.082 239.183 C 268.286 238.979,267.518 238.178,267.264 238.331 C 267.152 238.399,266.882 238.240,266.664 237.977 C 266.446 237.715,266.363 237.500,266.480 237.500 C 266.596 237.500,266.506 237.299,266.279 237.053 C 266.051 236.807,265.757 236.671,265.625 236.751 C 265.493 236.831,265.385 236.724,265.385 236.512 C 265.385 236.300,264.952 235.714,264.423 235.208 C 263.894 234.703,263.462 234.368,263.462 234.465 C 263.462 234.562,263.260 234.455,263.014 234.227 C 262.768 234.000,262.609 233.742,262.660 233.654 C 262.711 233.566,262.552 233.308,262.306 233.080 C 262.060 232.853,261.859 232.762,261.859 232.879 C 261.859 232.996,261.644 232.913,261.382 232.695 C 261.119 232.477,260.960 232.207,261.028 232.095 C 261.095 231.983,260.949 231.705,260.704 231.478 C 260.458 231.250,260.256 231.160,260.256 231.277 C 260.256 231.393,260.042 231.311,259.779 231.093 C 259.517 230.875,259.357 230.605,259.425 230.493 C 259.493 230.380,259.347 230.102,259.101 229.875 C 258.855 229.648,258.645 229.576,258.634 229.715 C 258.622 229.854,258.483 229.643,258.323 229.247 C 258.164 228.850,257.804 228.526,257.523 228.526 C 257.243 228.526,257.079 228.417,257.159 228.285 C 257.239 228.153,257.103 227.859,256.857 227.632 C 256.611 227.404,256.410 227.314,256.410 227.430 C 256.410 227.547,256.195 227.464,255.933 227.247 C 255.671 227.029,255.511 226.759,255.579 226.646 C 255.647 226.534,255.501 226.256,255.255 226.029 C 255.009 225.802,254.808 225.711,254.808 225.828 C 254.808 225.945,254.593 225.862,254.330 225.644 C 254.068 225.426,253.909 225.156,253.976 225.044 C 254.150 224.755,253.315 224.036,253.079 224.271 C 252.972 224.378,252.885 224.283,252.885 224.060 C 252.885 223.551,250.835 221.474,250.334 221.474 C 250.129 221.474,250.028 221.366,250.108 221.234 C 250.188 221.102,250.052 220.808,249.806 220.580 C 249.560 220.353,249.359 220.262,249.359 220.379 C 249.359 220.496,249.144 220.413,248.882 220.195 C 248.619 219.977,248.460 219.707,248.528 219.595 C 248.595 219.483,248.449 219.205,248.204 218.978 C 247.958 218.750,247.756 218.660,247.756 218.777 C 247.756 218.893,247.542 218.811,247.279 218.593 C 247.017 218.375,246.857 218.105,246.925 217.993 C 246.993 217.880,246.847 217.602,246.601 217.375 C 246.355 217.148,246.145 217.076,246.134 217.215 C 246.122 217.354,245.983 217.143,245.823 216.747 C 245.664 216.350,245.304 216.026,245.023 216.026 C 244.743 216.026,244.579 215.917,244.659 215.785 C 244.739 215.653,244.603 215.359,244.357 215.132 C 244.111 214.904,243.910 214.814,243.910 214.930 C 243.910 215.047,243.695 214.964,243.433 214.747 C 243.171 214.529,243.011 214.259,243.079 214.146 C 243.147 214.034,243.001 213.756,242.755 213.529 C 242.509 213.302,242.308 213.211,242.308 213.328 C 242.308 213.445,242.093 213.362,241.830 213.144 C 241.568 212.926,241.409 212.656,241.476 212.544 C 241.650 212.255,240.815 211.536,240.579 211.771 C 240.472 211.878,240.385 211.783,240.385 211.560 C 240.385 211.051,238.335 208.974,237.834 208.974 C 237.629 208.974,237.528 208.866,237.608 208.734 C 237.688 208.602,237.552 208.308,237.306 208.080 C 237.060 207.853,236.859 207.762,236.859 207.879 C 236.859 207.996,236.644 207.913,236.382 207.695 C 236.119 207.477,235.960 207.207,236.028 207.095 C 236.256 206.717,235.363 206.090,234.596 206.090 C 234.410 206.090,234.345 205.947,234.453 205.773 C 234.741 205.306,232.212 202.885,231.435 202.885 C 231.069 202.885,230.769 202.724,230.769 202.527 C 230.769 202.329,230.488 202.242,230.139 202.334 C 229.703 202.448,229.447 202.302,229.307 201.860 C 229.138 201.329,228.922 201.257,228.014 201.427 C 227.141 201.591,226.923 201.529,226.923 201.116 C 226.923 200.817,226.688 200.625,226.362 200.658 C 224.791 200.818,223.718 200.616,223.718 200.160 C 223.718 199.763,223.129 199.679,220.343 199.679 C 217.638 199.679,216.930 199.775,216.783 200.160 C 216.658 200.484,216.150 200.641,215.224 200.641 C 214.322 200.641,213.790 200.800,213.673 201.104 C 213.544 201.440,213.182 201.517,212.356 201.383 C 211.729 201.281,211.218 201.333,211.218 201.499 C 211.218 201.665,210.991 202.081,210.713 202.423 C 210.436 202.765,210.300 202.865,210.412 202.644 C 210.523 202.424,210.462 202.244,210.275 202.244 C 210.089 202.244,209.936 202.446,209.936 202.694 C 209.936 202.982,209.712 203.087,209.316 202.983 C 208.596 202.795,207.195 203.942,207.515 204.459 C 207.644 204.668,207.533 204.726,207.228 204.609 C 206.955 204.504,206.731 204.578,206.731 204.773 C 206.731 204.969,206.524 205.128,206.272 205.128 C 206.020 205.128,205.768 205.453,205.711 205.849 C 205.646 206.313,205.351 206.607,204.888 206.673 C 204.491 206.729,204.167 206.982,204.167 207.234 C 204.167 207.486,204.022 207.692,203.846 207.692 C 203.670 207.692,203.526 207.845,203.526 208.032 C 203.526 208.218,203.692 208.268,203.896 208.142 C 204.120 208.004,204.179 208.054,204.046 208.270 C 203.925 208.466,203.614 208.545,203.355 208.445 C 203.016 208.315,202.885 208.497,202.885 209.100 C 202.885 209.629,202.708 209.936,202.404 209.936 C 202.105 209.936,201.923 210.239,201.923 210.737 C 201.923 211.178,201.779 211.538,201.603 211.538 C 201.426 211.538,201.282 211.899,201.282 212.340 C 201.282 212.838,201.100 213.141,200.801 213.141 C 200.466 213.141,200.321 213.479,200.321 214.263 C 200.321 214.880,200.195 215.385,200.041 215.385 C 199.680 215.385,199.688 225.288,200.048 225.511 C 200.198 225.603,200.321 226.175,200.321 226.782 C 200.321 227.548,200.467 227.885,200.801 227.885 C 201.100 227.885,201.282 228.187,201.282 228.686 C 201.282 229.148,201.467 229.487,201.718 229.487 C 202.011 229.487,202.104 229.751,202.002 230.288 C 201.893 230.854,201.989 231.090,202.327 231.090 C 202.591 231.090,203.004 231.334,203.246 231.632 C 203.545 232.001,203.557 232.097,203.285 231.934 C 203.061 231.799,202.885 231.849,202.885 232.047 C 202.885 232.496,204.348 233.974,204.793 233.974 C 204.977 233.974,205.128 234.265,205.128 234.621 C 205.128 235.518,285.104 315.512,285.752 315.263 C 286.008 315.165,286.218 315.244,286.218 315.440 C 286.218 315.887,288.016 317.628,288.478 317.628 C 288.666 317.628,288.712 317.448,288.579 317.228 C 288.416 316.955,288.512 316.968,288.881 317.267 C 289.179 317.509,289.423 317.905,289.423 318.148 C 289.423 318.391,289.639 318.590,289.904 318.590 C 290.168 318.590,290.385 318.734,290.385 318.910 C 290.385 319.087,290.889 319.231,291.506 319.231 C 292.239 319.231,292.628 319.382,292.628 319.667 C 292.628 319.954,293.204 320.172,294.311 320.305 C 296.677 320.589,304.167 320.563,304.167 320.270 C 304.167 320.137,304.815 320.079,305.607 320.142 C 306.704 320.229,307.094 320.134,307.244 319.744 C 307.352 319.462,307.786 319.231,308.207 319.231 C 308.629 319.231,308.974 319.087,308.974 318.910 C 308.974 318.734,309.335 318.590,309.776 318.590 C 310.274 318.590,310.577 318.408,310.577 318.109 C 310.577 317.841,310.862 317.628,311.221 317.628 C 311.949 317.628,313.782 316.016,313.782 315.377 C 313.782 315.146,313.866 315.042,313.969 315.145 C 314.237 315.412,315.385 314.364,315.385 313.852 C 315.385 313.617,315.493 313.489,315.625 313.569 C 315.757 313.649,316.051 313.514,316.279 313.268 C 316.506 313.022,316.596 312.821,316.480 312.821 C 316.363 312.821,316.446 312.606,316.664 312.343 C 316.882 312.081,317.152 311.921,317.264 311.989 C 317.376 312.057,317.654 311.911,317.881 311.665 C 318.109 311.419,318.211 311.218,318.109 311.218 C 318.007 311.218,318.109 311.017,318.337 310.771 C 318.564 310.525,318.822 310.366,318.910 310.417 C 318.998 310.468,319.256 310.308,319.484 310.063 C 319.711 309.817,319.783 309.606,319.644 309.595 C 319.505 309.584,319.716 309.444,320.112 309.285 C 320.509 309.125,320.833 308.766,320.833 308.485 C 320.833 308.204,320.942 308.040,321.074 308.121 C 321.206 308.201,321.500 308.065,321.727 307.819 C 321.955 307.573,322.045 307.372,321.929 307.372 C 321.812 307.372,321.895 307.157,322.112 306.895 C 322.330 306.632,322.600 306.473,322.713 306.540 C 322.825 306.608,323.103 306.462,323.330 306.216 C 323.557 305.970,323.648 305.769,323.531 305.769 C 323.414 305.769,323.497 305.554,323.715 305.292 C 323.933 305.030,324.203 304.870,324.315 304.938 C 324.604 305.112,325.323 304.276,325.088 304.041 C 324.981 303.934,325.076 303.846,325.299 303.846 C 325.808 303.846,327.885 301.797,327.885 301.295 C 327.885 301.091,327.993 300.989,328.125 301.069 C 328.257 301.149,328.551 301.014,328.779 300.768 C 329.006 300.522,329.096 300.321,328.980 300.321 C 328.863 300.321,328.946 300.106,329.164 299.843 C 329.382 299.581,329.652 299.421,329.764 299.489 C 329.876 299.557,330.154 299.411,330.381 299.165 C 330.609 298.919,330.699 298.718,330.582 298.718 C 330.466 298.718,330.548 298.503,330.766 298.241 C 330.984 297.978,331.254 297.819,331.366 297.887 C 331.479 297.954,331.756 297.808,331.984 297.563 C 332.211 297.317,332.283 297.106,332.144 297.095 C 332.005 297.084,332.216 296.944,332.612 296.785 C 333.009 296.625,333.333 296.266,333.333 295.985 C 333.333 295.704,333.442 295.540,333.574 295.621 C 333.706 295.701,334.000 295.565,334.227 295.319 C 334.455 295.073,334.545 294.872,334.429 294.872 C 334.312 294.872,334.395 294.657,334.612 294.395 C 334.830 294.132,335.100 293.973,335.213 294.040 C 335.325 294.108,335.603 293.962,335.830 293.716 C 336.057 293.470,336.148 293.269,336.031 293.269 C 335.914 293.269,335.997 293.054,336.215 292.792 C 336.433 292.530,336.703 292.370,336.815 292.438 C 337.104 292.612,337.823 291.776,337.588 291.541 C 337.481 291.434,337.576 291.346,337.799 291.346 C 338.308 291.346,340.385 289.297,340.385 288.795 C 340.385 288.591,340.493 288.489,340.625 288.569 C 340.757 288.649,341.051 288.514,341.279 288.268 C 341.506 288.022,341.596 287.821,341.480 287.821 C 341.363 287.821,341.446 287.606,341.664 287.343 C 341.882 287.081,342.152 286.921,342.264 286.989 C 342.376 287.057,342.654 286.911,342.881 286.665 C 343.109 286.419,343.199 286.218,343.082 286.218 C 342.966 286.218,343.048 286.003,343.266 285.741 C 343.484 285.478,343.754 285.319,343.866 285.387 C 343.979 285.454,344.256 285.308,344.484 285.063 C 344.711 284.817,344.783 284.606,344.644 284.595 C 344.505 284.584,344.716 284.444,345.112 284.285 C 345.509 284.125,345.833 283.766,345.833 283.485 C 345.833 283.204,345.942 283.040,346.074 283.121 C 346.206 283.201,346.500 283.065,346.727 282.819 C 346.955 282.573,347.045 282.372,346.929 282.372 C 346.812 282.372,346.895 282.157,347.112 281.895 C 347.330 281.632,347.600 281.473,347.713 281.540 C 347.825 281.608,348.103 281.462,348.330 281.216 C 348.557 280.970,348.648 280.769,348.531 280.769 C 348.414 280.769,348.497 280.554,348.715 280.292 C 348.933 280.030,349.203 279.870,349.315 279.938 C 349.427 280.006,349.705 279.860,349.933 279.614 C 350.160 279.368,350.262 279.167,350.160 279.167 C 350.058 279.167,350.161 278.965,350.388 278.718 C 350.615 278.472,350.850 278.316,350.910 278.373 C 351.107 278.560,352.885 276.702,352.885 276.309 C 352.885 276.097,352.993 275.989,353.125 276.069 C 353.257 276.149,353.551 276.014,353.779 275.768 C 354.006 275.522,354.096 275.321,353.980 275.321 C 353.863 275.321,353.946 275.106,354.164 274.843 C 354.382 274.581,354.652 274.421,354.764 274.489 C 355.018 274.642,355.786 273.842,355.582 273.638 C 355.500 273.556,355.653 273.306,355.922 273.083 C 356.190 272.860,356.410 272.774,356.410 272.891 C 356.410 273.008,357.112 272.413,357.970 271.568 C 358.827 270.723,359.478 269.940,359.415 269.828 C 359.353 269.716,359.517 269.446,359.779 269.228 C 360.042 269.010,360.256 268.927,360.256 269.044 C 360.256 269.161,360.458 269.070,360.704 268.843 C 360.949 268.615,361.095 268.338,361.028 268.225 C 360.960 268.113,361.119 267.843,361.382 267.625 C 361.644 267.407,361.859 267.325,361.859 267.441 C 361.859 267.558,362.060 267.468,362.306 267.240 C 362.552 267.013,362.698 266.735,362.630 266.623 C 362.562 266.511,362.722 266.241,362.984 266.023 C 363.247 265.805,363.462 265.723,363.462 265.840 C 363.462 265.957,364.163 265.362,365.021 264.517 C 365.878 263.672,366.529 262.889,366.467 262.777 C 366.404 262.664,366.568 262.394,366.830 262.177 C 367.093 261.959,367.308 261.876,367.308 261.993 C 367.308 262.109,367.509 262.019,367.755 261.791 C 368.001 261.564,368.147 261.286,368.079 261.174 C 368.011 261.062,368.171 260.792,368.433 260.574 C 368.695 260.356,368.910 260.274,368.910 260.391 C 368.910 260.508,369.612 259.913,370.470 259.068 C 371.327 258.223,371.978 257.440,371.915 257.328 C 371.853 257.216,372.017 256.946,372.279 256.728 C 372.542 256.510,372.756 256.427,372.756 256.544 C 372.756 256.661,372.958 256.570,373.204 256.343 C 373.449 256.115,373.595 255.838,373.528 255.725 C 373.460 255.613,373.619 255.343,373.882 255.125 C 374.144 254.907,374.359 254.825,374.359 254.941 C 374.359 255.058,374.560 254.968,374.806 254.740 C 375.052 254.513,375.198 254.235,375.130 254.123 C 375.062 254.011,375.222 253.741,375.484 253.523 C 375.747 253.305,375.962 253.223,375.962 253.340 C 375.962 253.457,376.663 252.862,377.521 252.017 C 378.378 251.172,379.029 250.389,378.967 250.277 C 378.904 250.164,379.068 249.894,379.330 249.677 C 379.593 249.459,379.808 249.376,379.808 249.493 C 379.808 249.609,380.009 249.519,380.255 249.291 C 380.501 249.064,380.647 248.786,380.579 248.674 C 380.511 248.562,380.671 248.292,380.933 248.074 C 381.195 247.856,381.410 247.790,381.410 247.926 C 381.410 248.063,381.699 247.842,382.051 247.436 C 382.404 247.029,382.692 246.551,382.692 246.372 C 382.692 246.193,382.779 246.134,382.885 246.240 C 383.136 246.491,384.574 245.107,384.393 244.789 C 384.316 244.656,384.516 244.448,384.835 244.327 C 385.548 244.057,386.242 243.400,386.035 243.193 C 385.951 243.109,386.102 242.858,386.370 242.635 C 386.639 242.412,386.859 242.329,386.859 242.452 C 386.859 242.811,387.676 241.879,387.916 241.246 C 388.046 240.905,388.292 240.761,388.514 240.898 C 388.766 241.054,388.825 240.960,388.693 240.614 C 388.546 240.232,388.631 240.149,389.014 240.296 C 389.392 240.441,389.482 240.360,389.344 239.999 C 389.216 239.666,389.330 239.516,389.689 239.543 C 390.005 239.567,390.208 239.364,390.184 239.048 C 390.157 238.689,390.307 238.575,390.640 238.703 C 391.001 238.841,391.082 238.751,390.937 238.373 C 390.790 237.990,390.873 237.905,391.255 238.052 C 391.574 238.174,391.692 238.120,391.563 237.911 C 391.304 237.493,392.107 236.775,392.468 237.102 C 392.612 237.233,392.643 237.095,392.535 236.795 C 392.390 236.389,392.472 236.301,392.857 236.449 C 393.176 236.571,393.294 236.518,393.165 236.309 C 392.906 235.890,393.710 235.172,394.071 235.500 C 394.215 235.630,394.245 235.492,394.138 235.193 C 393.999 234.806,394.077 234.700,394.407 234.826 C 394.694 234.936,394.872 234.808,394.872 234.489 C 394.872 234.206,395.035 233.974,395.235 233.974 C 395.765 233.974,397.115 232.306,397.115 231.651 C 397.115 231.342,397.348 231.090,397.633 231.090 C 398.021 231.090,398.116 230.858,398.013 230.161 C 397.918 229.512,397.997 229.279,398.277 229.387 C 398.547 229.490,398.667 229.216,398.648 228.543 C 398.631 227.927,398.841 227.385,399.198 227.123 C 399.662 226.785,399.740 226.422,399.590 225.306 C 399.485 224.524,399.519 224.099,399.667 224.340 C 399.818 224.583,399.951 223.237,399.976 221.223 C 400.000 219.259,399.883 217.594,399.713 217.489 C 399.541 217.382,399.486 216.528,399.588 215.541 C 399.741 214.051,399.689 213.782,399.244 213.782 C 398.731 213.782,398.577 213.285,398.709 212.054 C 398.752 211.653,398.622 211.507,398.325 211.621 C 397.988 211.750,397.911 211.562,398.013 210.864 C 398.116 210.167,398.021 209.936,397.633 209.936 C 397.322 209.936,397.115 209.669,397.115 209.266 C 397.115 208.894,396.475 207.974,395.673 207.195 C 394.880 206.424,394.231 205.627,394.231 205.423 C 394.231 205.214,393.958 205.125,393.602 205.218 C 392.953 205.388,392.147 204.755,392.528 204.374 C 392.859 204.043,391.453 202.885,390.719 202.885 C 390.359 202.885,390.064 202.740,390.064 202.564 C 390.064 202.388,389.791 202.244,389.457 202.244 C 389.124 202.244,388.761 202.010,388.651 201.724 C 388.503 201.337,388.204 201.253,387.483 201.398 C 386.817 201.531,386.462 201.454,386.346 201.154 C 386.244 200.887,385.664 200.709,384.859 200.698 C 384.013 200.686,383.441 200.501,383.261 200.180 C 382.834 199.418,375.804 199.445,375.376 200.210 C 375.194 200.535,374.700 200.730,374.104 200.713 C 373.538 200.697,373.055 200.876,372.955 201.138 C 372.835 201.450,372.490 201.533,371.853 201.406 C 371.179 201.271,370.872 201.360,370.729 201.732 C 370.621 202.013,370.240 202.244,369.882 202.244 C 369.524 202.244,369.231 202.446,369.231 202.694 C 369.231 202.985,369.007 203.086,368.600 202.980 C 367.881 202.792,365.852 204.588,366.181 205.121 C 366.300 205.313,366.159 205.357,365.829 205.230 C 365.483 205.098,365.357 205.145,365.489 205.358 C 365.604 205.544,365.483 205.875,365.221 206.093 C 364.958 206.311,364.744 206.393,364.744 206.277 C 364.744 206.160,364.542 206.250,364.296 206.478 C 364.051 206.705,363.905 206.983,363.972 207.095 C 364.040 207.207,363.881 207.477,363.618 207.695 C 363.356 207.913,363.141 207.996,363.141 207.879 C 363.141 207.762,362.940 207.853,362.694 208.080 C 362.448 208.308,362.312 208.602,362.392 208.734 C 362.472 208.866,362.371 208.974,362.166 208.974 C 361.665 208.974,359.615 211.051,359.615 211.560 C 359.615 211.783,359.528 211.878,359.421 211.771 C 359.185 211.536,358.350 212.255,358.524 212.544 C 358.591 212.656,358.432 212.926,358.170 213.144 C 357.907 213.362,357.692 213.445,357.692 213.328 C 357.692 213.211,357.491 213.302,357.245 213.529 C 356.999 213.756,356.853 214.034,356.921 214.146 C 356.989 214.259,356.829 214.529,356.567 214.747 C 356.305 214.964,356.090 215.047,356.090 214.930 C 356.090 214.814,355.889 214.904,355.643 215.132 C 355.397 215.359,355.261 215.653,355.341 215.785 C 355.421 215.917,355.257 216.026,354.977 216.026 C 354.696 216.026,354.336 216.350,354.177 216.747 C 354.017 217.143,353.878 217.354,353.866 217.215 C 353.855 217.076,353.645 217.148,353.399 217.375 C 353.153 217.602,353.007 217.880,353.075 217.993 C 353.143 218.105,352.983 218.375,352.721 218.593 C 352.458 218.811,352.244 218.893,352.244 218.777 C 352.244 218.660,352.042 218.750,351.796 218.978 C 351.551 219.205,351.405 219.483,351.472 219.595 C 351.540 219.707,351.381 219.977,351.118 220.195 C 350.856 220.413,350.641 220.496,350.641 220.379 C 350.641 220.262,350.440 220.353,350.194 220.580 C 349.948 220.808,349.812 221.102,349.892 221.234 C 349.972 221.366,349.871 221.474,349.666 221.474 C 349.165 221.474,347.115 223.551,347.115 224.060 C 347.115 224.283,347.028 224.378,346.921 224.271 C 346.685 224.036,345.850 224.755,346.024 225.044 C 346.091 225.156,345.932 225.426,345.670 225.644 C 345.407 225.862,345.192 225.945,345.192 225.828 C 345.192 225.711,344.991 225.802,344.745 226.029 C 344.499 226.256,344.353 226.534,344.421 226.646 C 344.489 226.759,344.329 227.029,344.067 227.247 C 343.805 227.464,343.590 227.547,343.590 227.430 C 343.590 227.314,343.389 227.404,343.143 227.632 C 342.897 227.859,342.761 228.153,342.841 228.285 C 342.921 228.417,342.757 228.526,342.477 228.526 C 342.196 228.526,341.836 228.850,341.677 229.247 C 341.517 229.643,341.378 229.854,341.366 229.715 C 341.355 229.576,341.145 229.648,340.899 229.875 C 340.653 230.102,340.507 230.380,340.575 230.493 C 340.643 230.605,340.483 230.875,340.221 231.093 C 339.958 231.311,339.744 231.393,339.744 231.277 C 339.744 231.160,339.542 231.250,339.296 231.478 C 339.051 231.705,338.905 231.983,338.972 232.095 C 339.040 232.207,338.881 232.477,338.618 232.695 C 338.356 232.913,338.141 232.996,338.141 232.879 C 338.141 232.762,337.940 232.853,337.694 233.080 C 337.448 233.308,337.289 233.566,337.340 233.654 C 337.391 233.742,337.232 234.000,336.986 234.227 C 336.740 234.455,336.538 234.562,336.538 234.465 C 336.538 234.368,336.106 234.703,335.577 235.208 C 335.048 235.714,334.615 236.300,334.615 236.512 C 334.615 236.724,334.507 236.831,334.375 236.751 C 334.243 236.671,333.949 236.807,333.721 237.053 C 333.494 237.299,333.404 237.500,333.520 237.500 C 333.637 237.500,333.554 237.715,333.336 237.977 C 333.118 238.240,332.848 238.399,332.736 238.331 C 332.482 238.178,331.714 238.979,331.918 239.183 C 332.000 239.265,331.847 239.514,331.578 239.737 C 331.310 239.960,331.090 240.047,331.090 239.929 C 331.090 239.812,330.388 240.407,329.530 241.252 C 328.673 242.097,328.022 242.880,328.085 242.993 C 328.147 243.105,327.983 243.375,327.721 243.593 C 327.458 243.811,327.244 243.893,327.244 243.777 C 327.244 243.660,327.042 243.750,326.796 243.978 C 326.551 244.205,326.405 244.483,326.472 244.595 C 326.540 244.707,326.381 244.977,326.118 245.195 C 325.856 245.413,325.641 245.496,325.641 245.379 C 325.641 245.262,325.440 245.353,325.194 245.580 C 324.948 245.808,324.802 246.085,324.870 246.198 C 324.938 246.310,324.778 246.580,324.516 246.798 C 324.253 247.016,324.038 247.091,324.038 246.965 C 324.038 246.839,323.395 247.398,322.608 248.208 C 321.821 249.017,321.100 249.679,321.006 249.679 C 320.911 249.679,320.833 197.331,320.833 133.349 C 320.833 26.452,320.791 16.995,320.314 16.728 C 319.960 16.530,319.801 16.015,319.813 15.110 C 319.823 14.380,319.696 13.782,319.531 13.782 C 319.366 13.782,319.231 13.264,319.231 12.630 C 319.231 11.772,319.077 11.438,318.627 11.321 C 318.198 11.208,318.074 10.970,318.198 10.495 C 318.327 10.000,318.251 9.874,317.900 10.009 C 317.535 10.149,317.459 9.980,317.565 9.262 C 317.667 8.565,317.572 8.333,317.184 8.333 C 316.899 8.333,316.667 8.183,316.667 8.000 C 316.667 7.525,314.221 5.117,313.982 5.356 C 313.872 5.466,313.782 5.367,313.782 5.136 C 313.782 4.496,311.949 2.885,311.221 2.885 C 310.862 2.885,310.577 2.672,310.577 2.404 C 310.577 2.105,310.274 1.923,309.776 1.923 C 309.335 1.923,308.974 1.779,308.974 1.603 C 308.974 1.426,308.614 1.282,308.173 1.282 C 307.653 1.282,307.372 1.102,307.372 0.770 C 307.372 0.355,307.069 0.280,305.769 0.370 C 304.888 0.431,304.166 0.373,304.166 0.240 C 304.167 0.001,296.109 -0.005,293.830 0.233 " stroke="none" fill="#040404" fill-rule="evenodd"></path><path id="path1" d="" stroke="none" fill="#080404" fill-rule="evenodd"></path><path id="path2" d="" stroke="none" fill="#080404" fill-rule="evenodd"></path><path id="path3" d="" stroke="none" fill="#080404" fill-rule="evenodd"></path><path id="path4" d="" stroke="none" fill="#080404" fill-rule="evenodd"></path></g></svg>