<svg width="40" height="40" viewBox="0 0 40 40" fill="none" xmlns="http://www.w3.org/2000/svg">
<g clip-path="url(#clip0_36_113)">
<path d="M0 20C0 8.95312 8.95312 0 20 0C31.0469 0 40 8.95312 40 20C40 31.0469 31.0469 40 20 40C8.95312 40 0 31.0469 0 20ZM29.0469 16.5469C29.8984 15.6953 29.8984 14.3047 29.0469 13.4531C28.1953 12.6016 26.8047 12.6016 25.9531 13.4531L17.5 21.9062L14.0469 18.4531C13.1953 17.6016 11.8047 17.6016 10.9531 18.4531C10.1016 19.3047 10.1016 20.6953 10.9531 21.5469L15.9531 26.5469C16.8047 27.3984 18.1953 27.3984 19.0469 26.5469L29.0469 16.5469Z" fill="#009245"/>
<path d="M6 20C6 12.2672 12.2672 6 20 6C27.7328 6 34 12.2672 34 20C34 27.7328 27.7328 34 20 34C12.2672 34 6 27.7328 6 20ZM26.3328 17.5828C26.9289 16.9867 26.9289 16.0133 26.3328 15.4172C25.7367 14.8211 24.7633 14.8211 24.1672 15.4172L18.25 21.3343L15.8328 18.9172C15.2367 18.3211 14.2633 18.3211 13.6672 18.9172C13.0711 19.5133 13.0711 20.4867 13.6672 21.0828L17.1672 24.5828C17.7633 25.1789 18.7367 25.1789 19.3328 24.5828L26.3328 17.5828Z" fill="#E5FFF1"/>
<path d="M26.3328 17.5828C26.9288 16.9867 26.9288 16.0133 26.3328 15.4172C25.7367 14.8211 24.7633 14.8211 24.1671 15.4172L18.25 21.3343L15.8328 18.9172C15.2367 18.3211 14.2633 18.3211 13.6671 18.9172C13.0711 19.5133 13.0711 20.4867 13.6671 21.0828L17.1671 24.5828C17.7633 25.1789 18.7367 25.1789 19.3328 24.5828L26.3328 17.5828Z" fill="#009245"/>
</g>
<defs>
<clipPath id="clip0_36_113">
<rect width="40" height="40" fill="white"/>
</clipPath>
</defs>
</svg>
