<svg width="40" height="40" viewBox="0 0 40 40" fill="none" xmlns="http://www.w3.org/2000/svg">
<g clip-path="url(#clip0_36_121)">
<path d="M20 0C8.95312 0 0 8.95312 0 20C0 31.0469 8.95312 40 20 40C31.0469 40 40 31.0469 40 20C40 8.95312 31.0469 0 20 0ZM18.125 11.875C18.125 10.8438 18.9688 10 20 10C21.0312 10 21.875 10.8398 21.875 11.875V21.875C21.875 22.9102 21.0352 23.75 20 23.75C18.9648 23.75 18.125 22.9141 18.125 21.875V11.875ZM20 31.25C18.6437 31.25 17.5438 30.15 17.5438 28.7938C17.5438 27.4375 18.643 26.3375 20 26.3375C21.357 26.3375 22.4562 27.4375 22.4562 28.7938C22.4531 30.1484 21.3594 31.25 20 31.25Z" fill="#E08E00"/>
<path d="M18.125 11.875C18.125 10.8438 18.9688 10 20 10C21.0312 10 21.875 10.8398 21.875 11.875V21.875C21.875 22.9102 21.0352 23.75 20 23.75C18.9648 23.75 18.125 22.9141 18.125 21.875V11.875Z" fill="#E08E00"/>
<path d="M20 31.25C18.6437 31.25 17.5438 30.15 17.5438 28.7938C17.5438 27.4375 18.643 26.3375 20 26.3375C21.357 26.3375 22.4562 27.4375 22.4562 28.7938C22.4531 30.1484 21.3594 31.25 20 31.25Z" fill="#E08E00"/>
<path d="M20 6C12.2672 6 6 12.2672 6 20C6 27.7328 12.2672 34 20 34C27.7328 34 34 27.7328 34 20C34 12.2672 27.7328 6 20 6ZM18.6875 14.3125C18.6875 13.5907 19.2782 13 20 13C20.7218 13 21.3125 13.5879 21.3125 14.3125V21.3125C21.3125 22.0371 20.7246 22.625 20 22.625C19.2754 22.625 18.6875 22.0399 18.6875 21.3125V14.3125ZM20 27.875C19.0506 27.875 18.2807 27.105 18.2807 26.1557C18.2807 25.2062 19.0501 24.4362 20 24.4362C20.9499 24.4362 21.7193 25.2062 21.7193 26.1557C21.7172 27.1039 20.9516 27.875 20 27.875Z" fill="#FFF6E6"/>
<path d="M18.6875 14.3125C18.6875 13.5907 19.2782 13 20 13C20.7218 13 21.3125 13.5879 21.3125 14.3125V21.3125C21.3125 22.0371 20.7246 22.625 20 22.625C19.2754 22.625 18.6875 22.0399 18.6875 21.3125V14.3125Z" fill="#E08E00"/>
<path d="M20 27.875C19.0506 27.875 18.2807 27.105 18.2807 26.1557C18.2807 25.2062 19.0501 24.4362 20 24.4362C20.9499 24.4362 21.7194 25.2062 21.7194 26.1557C21.7172 27.1039 20.9516 27.875 20 27.875Z" fill="#E08E00"/>
</g>
<defs>
<clipPath id="clip0_36_121">
<rect width="40" height="40" fill="white"/>
</clipPath>
</defs>
</svg>
