<svg width="178" height="22" viewBox="0 0 178 22" fill="none" xmlns="http://www.w3.org/2000/svg">
<path fill-rule="evenodd" clip-rule="evenodd" d="M27.9915 15.5479V3.76358L22.5823 7.76716L15.8864 12.723C19.2411 11.2585 24.4196 11.6147 27.9915 15.5479ZM24.2244 2.23096H19.4649C8.98338 2.23096 0.486389 10.7279 0.486389 21.2095H27.1042C21.1105 13.841 11.9506 13.0915 6.09968 15.6457L17.3244 7.33789L24.2244 2.23096Z" fill="black"/>
<path d="M48.8902 16.6423L50.5942 20.1175H54.6074L46.3791 4.13154H42.4107L34.3169 20.1175H38.375L40.0341 16.6423H48.8902ZM44.3837 7.51706L47.3656 13.5931H41.4915L44.3837 7.51706Z" fill="black"/>
<path d="M63.2074 20.1175V16.8216H61.2344C59.7322 16.8216 58.8578 16.732 58.387 16.2163C57.8713 15.7455 57.7592 14.8038 57.7592 13.1447V10.4766H63.2074V7.24801H57.7592V3.72797H54.5755C54.5979 4.42301 54.5755 5.47678 54.3737 6.12698C54.1271 6.86686 53.8356 7.18075 53.0285 7.33769C52.3783 7.42738 51.3694 7.42738 50.5622 7.42738V10.4766H54.1495V13.7724C54.1495 16.8889 54.7773 18.6601 56.5485 19.5121C57.4229 19.8933 58.6336 20.1175 60.2255 20.1175H63.2074Z" fill="black"/>
<path d="M72.5065 20.5435C76.5646 20.5435 79.0533 19.3552 80.264 17.3149C80.8917 16.2835 81.1832 15.1177 81.1832 13.7724C81.1832 10.7905 79.7483 8.72778 77.1699 7.60674C75.8696 7.04623 74.3898 6.77718 72.6186 6.77718C69.1658 6.77718 66.5426 7.94305 65.1302 10.0506C64.4351 11.1044 64.0764 12.3375 64.0764 13.7724C64.0764 16.575 65.1077 18.6377 67.574 19.7139C68.8295 20.2744 70.4662 20.5435 72.5065 20.5435ZM72.6186 17.427C69.3452 17.427 67.9551 16.2163 67.9551 13.7724C67.9551 11.1268 69.5021 9.84881 72.6634 9.84881C75.9368 9.84881 77.3045 11.1941 77.3045 13.7724C77.3045 16.149 76.0489 17.427 72.6186 17.427Z" fill="black"/>
<path d="M86.0478 20.1175V14.3329C86.0478 11.5304 87.0791 9.84881 89.5678 9.84881C91.4063 9.84881 92.2583 10.5663 92.5946 11.7321C92.7739 12.3375 92.8636 12.9653 92.8636 13.7276V20.1175H96.6975V14.1536C96.6975 11.5752 97.7288 9.84881 100.038 9.84881C101.832 9.84881 102.796 10.5439 103.177 11.777C103.356 12.3824 103.468 13.0774 103.468 13.9294V20.1175H107.302V13.2568C107.302 10.6784 106.45 8.72778 104.702 7.60674C103.827 7.06865 102.729 6.7996 101.406 6.7996C98.7378 6.7996 96.9217 8.1 96.0473 10.1403C95.3074 8.07758 93.6708 6.77718 90.8682 6.77718C88.3123 6.77718 86.6531 8.1 85.7787 9.98334L85.4649 7.24801H82.1915V20.1175H86.0478Z" fill="black"/>
<path d="M110.602 5.27499C112.261 5.27499 113.068 4.57995 113.068 2.96566C113.068 1.28411 112.194 0.701172 110.602 0.701172C109.032 0.701172 108.136 1.28411 108.136 2.96566C108.136 4.71448 108.853 5.27499 110.602 5.27499ZM108.562 20.1175H112.485V7.24801H108.562V20.1175Z" fill="black"/>
<path d="M144.356 17.0683L144.692 20.1175H147.786V12.1133C147.786 9.31072 146.621 7.87579 144.356 7.24801C143.213 6.95654 141.845 6.7996 140.163 6.7996C135.209 6.7996 132.451 8.30178 132.025 11.7321H135.948C136.06 10.7008 136.599 10.073 137.899 9.78155C138.527 9.60218 139.379 9.53492 140.5 9.53492C142.361 9.53492 143.37 9.89365 143.796 10.4093C144.042 10.6784 144.132 10.9474 144.132 11.2389V11.2613C144.132 11.8218 143.773 12.1133 142.719 12.2702C142.204 12.3599 141.464 12.4048 140.5 12.472C137.742 12.629 136.217 12.8083 135.164 13.0774C134.648 13.2343 134.177 13.3913 133.751 13.5931C132.339 14.2433 131.711 15.3643 131.711 16.8665V16.8889C131.711 19.3552 133.662 20.5435 137.204 20.5435C140.926 20.5435 143.302 19.1086 144.356 17.0683ZM138.347 17.853C136.464 17.853 135.747 17.4046 135.747 16.5526V16.5302C135.747 16.0145 136.016 15.6334 136.554 15.3643C137.249 15.028 138.37 14.8486 140.836 14.7365C142.944 14.6244 143.84 14.3105 144.177 13.8621V13.9518C144.177 15.2522 143.123 16.5078 141.352 17.2701C140.477 17.6512 139.491 17.853 138.347 17.853Z" fill="black"/>
<path d="M152.611 20.4314C153.598 20.4314 154.203 19.983 154.203 18.9516C154.203 17.9203 153.687 17.427 152.634 17.427C151.557 17.427 151.019 17.9203 151.019 18.9516C151.019 20.0054 151.557 20.4314 152.611 20.4314Z" fill="black"/>
<path d="M170.514 16.0348L170.673 20.1336H172.176L172.222 11.1162C172.222 8.40645 170.172 6.67584 165.163 6.67584C160.107 6.67584 157.398 8.29259 156.942 11.8677H158.764C159.151 9.24899 160.904 8.06488 165.277 8.06488C167.941 8.06488 169.375 8.67971 169.99 9.49947C170.332 9.93212 170.468 10.3192 170.468 10.7519C170.468 11.7083 169.899 12.1182 168.396 12.3231C167.645 12.437 166.643 12.528 165.368 12.6191C162.612 12.7785 160.904 13.029 159.743 13.4161C159.174 13.5983 158.673 13.8488 158.24 14.122C157.193 14.7824 156.669 15.7616 156.669 17.0368V17.0595C156.669 19.2228 158.058 20.5435 161.838 20.5435C165.003 20.5435 167.303 19.6327 168.829 18.2664C169.603 17.606 170.15 16.8318 170.514 16.0348ZM162.225 19.2C159.515 19.2 158.582 18.2664 158.582 16.9457V16.9229C158.582 16.1487 158.901 15.5339 159.538 15.0557C160.449 14.3497 162.089 13.9854 165.527 13.7805C168.692 13.5983 169.99 13.234 170.514 12.5736V13.53C170.514 14.8507 169.74 16.1942 168.305 17.3328C166.871 18.4713 164.821 19.2 162.225 19.2Z" fill="black"/>
<path d="M176.748 4.80859C177.636 4.80859 178 4.37594 178 3.51063C178 2.64533 177.613 2.23544 176.748 2.23544C175.928 2.23544 175.495 2.64533 175.495 3.51063C175.495 4.46703 175.859 4.80859 176.748 4.80859ZM175.791 20.1336H177.613V7.22235H175.791V20.1336Z" fill="black"/>
<path fill-rule="evenodd" clip-rule="evenodd" d="M129.639 17.6288C130.105 16.9865 130.433 16.2521 130.614 15.4423H126.384C125.83 16.7335 124.543 17.427 122.106 17.427C118.833 17.427 117.443 16.2163 117.443 13.7724C117.443 11.1268 118.99 9.84881 122.151 9.84881C124.496 9.84881 125.807 10.5025 126.384 11.8099H130.587C129.769 8.58087 126.868 6.77718 122.106 6.77718C118.653 6.77718 116.03 7.94305 114.618 10.0506C113.923 11.1044 113.564 12.3375 113.564 13.7724C113.564 16.575 114.595 18.6377 117.062 19.7139C118.317 20.2744 119.954 20.5435 121.994 20.5435C125.85 20.5435 128.317 19.4673 129.639 17.6288Z" fill="black"/>
</svg>
